<svg id="Layer_1" data-name="Layer 1" xmlns="http://www.w3.org/2000/svg" viewBox="0 0 1920 1372.63"><defs><style>.cls-1{fill:#fff;}.cls-2{fill:#e7e216;}.cls-3{fill:none;}.cls-4{fill:#231f20;}.cls-5{fill:#6dccdc;}</style></defs><polygon class="cls-1" points="261.53 732.23 327.4 732.23 327.4 839.6 398.49 839.6 398.49 553.68 327.4 553.68 327.4 661.14 261.53 661.14 261.53 553.68 190.43 553.68 190.43 839.6 261.53 839.6 261.53 732.23"/><polygon class="cls-1" points="725.52 839.6 796.62 839.6 796.62 698.19 874.19 553.68 801.94 553.68 761.12 629.61 720.2 553.68 647.95 553.68 725.52 697.7 725.52 839.6"/><polygon class="cls-1" points="521.91 772.18 595.14 772.18 618.55 839.6 694.96 839.6 595.82 553.68 521.34 553.68 422.19 839.6 498.22 839.6 521.91 772.18"/><path d="M373,827.86h-71.1a3.58,3.58,0,0,1-3.58-3.58V720.49H239.57V824.28a3.58,3.58,0,0,1-3.58,3.58H164.9a3.58,3.58,0,0,1-3.58-3.58V538.35a3.58,3.58,0,0,1,3.58-3.58H236a3.58,3.58,0,0,1,3.58,3.58V642.24h58.71V538.35a3.58,3.58,0,0,1,3.58-3.58H373a3.59,3.59,0,0,1,3.58,3.58V824.28A3.58,3.58,0,0,1,373,827.86Zm-67.52-7.16h63.93V541.94H305.44V645.82a3.58,3.58,0,0,1-3.58,3.58H236a3.58,3.58,0,0,1-3.58-3.58V541.94H168.48V820.7h63.93V716.91a3.58,3.58,0,0,1,3.58-3.58h65.87a3.58,3.58,0,0,1,3.58,3.58Z"/><path d="M771.08,827.86H700a3.58,3.58,0,0,1-3.58-3.58v-141L619.26,540.05a3.59,3.59,0,0,1,3.15-5.28h72.26a3.6,3.6,0,0,1,3.15,1.89l37.76,70.07,37.67-70.07a3.6,3.6,0,0,1,3.15-1.89h72.26a3.59,3.59,0,0,1,3.15,5.28L774.66,683.76V824.28A3.58,3.58,0,0,1,771.08,827.86Zm-67.51-7.16H767.5V682.86a3.57,3.57,0,0,1,.43-1.69l74.74-139.23H778.54l-39.8,74a3.6,3.6,0,0,1-3.16,1.89h0a3.6,3.6,0,0,1-3.15-1.89l-39.9-74H628.41l74.73,138.74a3.61,3.61,0,0,1,.43,1.7Z"/><path d="M669.42,827.86H593a3.59,3.59,0,0,1-3.38-2.41l-22.58-65H498.92l-22.86,65a3.59,3.59,0,0,1-3.38,2.39h-76a3.59,3.59,0,0,1-3.39-4.75l99.15-285.93a3.58,3.58,0,0,1,3.38-2.41h74.48a3.59,3.59,0,0,1,3.38,2.41l99.15,285.93a3.59,3.59,0,0,1-3.39,4.75Zm-73.86-7.16h68.83L567.73,541.94H498.35L401.69,820.7h68.45l22.86-65a3.59,3.59,0,0,1,3.38-2.39H569.6a3.59,3.59,0,0,1,3.38,2.41Z"/><path class="cls-2" d="M1088.52,393.43c-.44-10.08-3.14-20.07-5-30.07-1-5.48-3.72-9.95-10-9.45-7.86.62-8.36-4.11-9.85-10.1a274.56,274.56,0,0,0-11.6-35.57c-1.73-4.28-5.92-8.82-10.08-10.48-3.26-1.3-8.22,1.68-12.63,2.81-3.28-4.85-6.44-10-10.1-14.78-9-11.76-18-23.58-27.56-34.92-8.54-10.14-13.08-9.87-22.41-.1-.53.56-1.32.87-.73.49-17.9-13.35-35.22-26.49-52.84-39.2-3.6-2.6-8.5-5.27-12.53-4.91-4.36.39-8.4,4.29-12.84,6.8-23.08-10.41-47.84-16.24-72.89-20.85-6.09-1.13-13-2.63-18,3.68-5.44,6.82-.75,12.49,2.39,17.79,10.9,18.39,23.29,35.74,38.21,51.14,3.33,3.43,6.29,6.38,4.44,11.93-1.77,5.31.85,9.68,4.37,13.86,11.94,14.16,23.6,28.55,35.87,43.46-6.37,7-2.95,14.36,2.22,21.36a68.35,68.35,0,0,0,7.46,8.23c5.65,5.51,11.21,11.14,17.25,16.19,3.55,3,5.64,6,4.78,10.66-1.18,6.47,1.57,11.78,5.1,16.81,6.13,8.73,12.1,17.58,18.53,26.08,15.79,20.89,33.42,40,57.61,51.22,9.27,4.3,16.45,9.83,21.49,18.51,2.19,3.75,5.36,7.21,7.22,11a11.33,11.33,0,0,0,.26,2.29c.36,1.6,34.54,163.39-89.93,392.34a11.12,11.12,0,1,0,19.54,10.63C1063.14,723.61,1057.08,577.22,1051,529.2l.22.11c-.19-1.95-.33-3.9-.57-5.86a76.86,76.86,0,0,1,0-9.35c22.27-11.25,31.1-30.56,35.79-52.72C1091.2,438.84,1089.51,416.09,1088.52,393.43Z"/><path class="cls-2" d="M925.74,739.53c-.52-14.33-1.38-28.63-3.27-42.78-2.32-17.36-5.84-34.57-9.72-51.71-2.79-13.82-5.47-24.86-7.52-32.68-1-5.49-.07-9.07,4.11-13.08,11.24-10.8,15.83-24.64,17.2-39.88,3.42-38.09-8.06-73.25-20.9-108.17-2.18-5.93-6.5-8.92-12.83-8.46-2.49.18-4.92,1.12-7.2,1.66-1.44-2.65-2.29-4.29-3.21-5.89-7.13-12.47-13.9-25.17-21.54-37.32-4.64-7.38-9-8-16.47-4.34a32.52,32.52,0,0,0-4.35,2.84c-16.64-13.69-32.16-26.9-48.25-39.39-3.67-2.85-9.54-5-13.85-4.27-3.83.66-6.89,5.76-10.81,9.39-3.84-2.21-8.09-5.08-12.68-7.21-16.79-7.78-33.71-15.3-50.57-23-6.08-2.77-10.73-1.1-14.32,4.28-1.19,1.78-2.36,3.56-3.47,5.24-25.87-6.48-51.35-6.22-76.85-5.63-6.6.15-13.66-.24-16.68,7.13-3.18,7.72,1.65,13.2,6.74,18.26,2,2,3.78,4.11,5.87,5.94,15.25,13.43,30.56,26.8,46.48,40.75-.35,8.12-.77,8.61,5.77,14.29,12.92,11.24,26.22,22.09,39.69,32.66,3.93,3.07,7.17,5.46,6,11.13-1.29,6.32,2.17,10.56,7.17,13.87,9.66,6.38,19.24,12.89,29,19.17,3.14,2,6.55,3.38,6,8.2-.69,6.73,3.29,11.51,7.84,15.54,14.57,12.9,28.94,26.09,44.19,38.13q2.52,2,5.11,3.88c4.6-4.07,10.87-6.66,18.93-6.66,19,0,29.39,14.18,30.71,28.89,6.57,2.58,12.44,6.28,16.85,12.89a11.4,11.4,0,0,0,5.55,4c6.22,2.1,7.87,7.32,9.61,12.68.09.28.16.56.25.84,16.4,65.65,68.57,331.67-94.51,551.89a11.12,11.12,0,0,0,17.88,13.24c72.5-97.91,103.37-203.85,114.7-294.19l1.3-6c.42-5.67.69-10,.89-13.84a740.54,740.54,0,0,0,3.45-78.63C927.89,774.35,927,756.38,925.74,739.53Z"/><path class="cls-3" d="M802.84,490.44V466.29c-26.6-6-52.59-4.29-79.9.27C747,486.71,773.35,494,802.84,490.44Z"/><path class="cls-3" d="M915.78,272.69c8.92,3.68,17.68,7.72,27.53,12.06,1.29-6.68,2-11.93-2.33-16.7-12.19-13.46-25-26.23-43.18-38,3.72,12.89,6.94,22.83,9.35,33C908.38,268.2,911.2,270.81,915.78,272.69Z"/><path class="cls-3" d="M724.25,443.34c.6,0,1.21-.11,1.81-.18l1.17-.13.32,0c9.1-1.22,18.28-1.91,27.41-2.9.9-.1,1.8-.25,2.71-.38.52-.08,1.07-.14,1.6-.23,1.54-.25,3.12-.52,4.8-.78-1.74-8.58-6.2-13.54-13.06-16.13a186.33,186.33,0,0,0-20.92-6.81c-19.07-4.73-38.47-2.66-59.09,0,11.8,7.81,23.69,15.49,35.37,23.49a27.06,27.06,0,0,0,2.65,1.57c.3.15.6.26.9.4.6.28,1.19.55,1.79.76.36.13.72.23,1.09.35.55.17,1.1.33,1.66.46.38.09.77.16,1.17.23s1.08.19,1.62.26.81.09,1.22.12,1.09.07,1.64.09h1.23c.56,0,1.14,0,1.71,0Z"/><path class="cls-3" d="M876.09,479.05c-.68-2.21-2.12-4.18-3.85-7.49-9.52,23-18.07,44.48-19.23,67.9-.7,14.33-.25,28.7,14.94,38.14,2.86-2.3,6-4.25,8.36-6.84,8-8.62,10.33-19.46,10.67-30.7C887.61,519,882.22,498.93,876.09,479.05Z"/><path class="cls-3" d="M839.62,431.71a80.63,80.63,0,0,0-4.06-7l-2.94.39c-.52,3.18-1.07,6.37-1.62,9.55-.52,3-1,6-1.55,9-.2,1.12-.36,2.25-.55,3.37-.33,2-.66,4-1,6-.19,1.26-.34,2.52-.52,3.79-.23,1.73-.49,3.46-.7,5.2l0,.36c0,.18-.05.36-.08.54-.06.57-.08,1.14-.13,1.7-.12,1.28-.23,2.56-.3,3.84,0,.57,0,1.13-.08,1.69-.19,4.49-.17,9,0,13.47,0,.73,0,1.41.07,2.06l.06,2.21V488c0,.88,0,1.65.08,2.36,0,.1,0,.23,0,.33a16.86,16.86,0,0,0,.2,1.82c0,.1,0,.21.05.3a5.86,5.86,0,0,0,.42,1.34l.1.18a3.43,3.43,0,0,0,.77,1l0,0a5.28,5.28,0,0,0,1.2.71l.2.09a12.12,12.12,0,0,0,1.74.53l.38.09c.7.16,1.48.31,2.37.46l.57.1,3.12.49c1.65-4.14,3.82-8.27,4.94-12.67,2.35-9.23,11.17-17,8.75-26.85C848.9,449.07,843.68,440.52,839.62,431.71Z"/><path class="cls-3" d="M776.4,396.24c.68,2.72,1.35,5.43,2,8.15.63,2.47,1.29,4.94,1.94,7.4.33,1.28.65,2.57,1,3.84q1.51,5.61,3.14,11.17c4.28,14.54,5.09,14.72,22,15.2,1.12-5.16,1.48-10.83,3.62-15.71,2.94-6.72.81-11.59-3.63-16.12-10-10.14-20-20.13-30.08-30.18l-3.65,1.81c.71,2.72,1.39,5.45,2.08,8.17Z"/><path class="cls-3" d="M688.54,388.74c-3.5-7.76-7-14.78-9.83-22-2.21-5.58-4.94-9.18-11.74-9.8-8.67-.79-17.14-3.93-25.81-4.63-10.55-.84-21.21-.2-32.56-.2,7.53,6.58,14.23,12.86,21.38,18.57C646.87,384.17,664.36,396.17,688.54,388.74Z"/><path class="cls-3" d="M721.31,390.94c10.38,1.73,20.62,4.25,34.09,7.12-2.68-5.89-3.36-10.58-6.07-12.83-15.09-12.47-31.4-23-52.8-30.77,6.41,12,11.46,21.19,16.34,30.53C714.72,388.53,717.15,390.25,721.31,390.94Z"/><path class="cls-3" d="M824.33,519a196.6,196.6,0,0,0-60.43-5.45c18.88,17.95,37.52,31.89,59.65,40.72,1.83.73,4.2.1,5.12.1.9-9.23,1.6-17.4,2.53-25.54C831.82,523.42,830.12,520.44,824.33,519Z"/><path class="cls-3" d="M1027.34,361.32c-2.21-11.61-5.08-23.09-7.71-34.62L1017,327c-3.63,8.43-7.84,16.65-10.74,25.32-3.61,10.85-6.5,22-9,33.12-1.91,8.45-.55,10.12,8.75,14.61,6.48-9.76,13.23-19.53,19.46-29.63A14.08,14.08,0,0,0,1027.34,361.32Z"/><path class="cls-3" d="M1032.31,400.68c-6.84,13-13.93,26-19.1,39.74-4.58,12.1-6,25.13.59,37.49,3.42,6.38,6.31,7.19,12,2.92,9.17-6.82,15.55-15.71,18.26-26.95,5.67-23.59,4.82-47.39,2.11-74C1040.39,388.48,1035.7,394.23,1032.31,400.68Z"/><path class="cls-3" d="M968,270.58c-2.68,21.75-1.1,40.81,1.88,59.79.28,1.8,2.62,3.83,4.5,4.71,3.66,1.71,7.67,2.68,12.62,4.32,3-6.81,6.09-12.94,8.32-19.38a13.47,13.47,0,0,0-.18-9.06C988.72,296.74,979.67,284.24,968,270.58Z"/><path class="cls-3" d="M882.26,262.27c-1.79-8.15-4.21-15.64-4.84-23.27-.5-6-3.16-8.93-8.07-11.51-17.28-9.08-35.58-14.89-57.48-19,12,18.93,24.74,34,40,46.78A25.42,25.42,0,0,0,863,260.17C869.09,261.4,875.43,261.59,882.26,262.27Z"/><path class="cls-3" d="M987,455.92c2.87-12.21,5.43-23.11,8-34.15-20.23-12.65-41.77-17.38-66.36-23.95C946.22,421.43,962.9,441.28,987,455.92Z"/><path class="cls-3" d="M945.88,326.83c-.69-11-5.73-17.21-13.8-22.24C910.75,291.3,886.86,287.11,861.9,284a135.26,135.26,0,0,0,34.17,36,11.06,11.06,0,0,0,5,2.1C915.93,323.72,930.81,325.24,945.88,326.83Z"/><path class="cls-3" d="M973.48,385.29c.89-2.73,1.7-4.86,2.27-7.06,4.16-16,3.36-17.56-12.42-23.09-19.75-6.93-40.41-8.42-61-10.18-.49,0-1.07,1.11-1.61,1.71h0c14.2,16.56,30.82,28.67,51.15,34.69A104.67,104.67,0,0,0,973.48,385.29Z"/><path d="M1068.92,383.53c-.44-10.08-3.14-20.07-5-30.07-1-5.48-3.72-9.94-10-9.45-7.86.63-8.36-4.1-9.86-10.1a270.91,270.91,0,0,0-11.6-35.56c-1.72-4.29-5.91-8.83-10.07-10.49-3.26-1.29-8.22,1.68-12.63,2.81-3.29-4.85-6.44-10-10.1-14.78-9-11.76-18-23.57-27.56-34.91-8.54-10.15-13.09-9.88-22.41-.1-.53.55-1.32.87-.73.49C931,228,913.72,214.88,896.1,202.16c-3.61-2.6-8.5-5.26-12.53-4.9-4.36.38-8.4,4.29-12.84,6.8-23.08-10.42-47.84-16.24-72.89-20.86-6.09-1.12-13-2.63-18,3.68-5.45,6.82-.75,12.5,2.39,17.8,10.9,18.38,23.28,35.74,38.21,51.13,3.33,3.43,6.29,6.38,4.44,11.94-1.77,5.31.85,9.68,4.37,13.85,11.94,14.16,23.6,28.56,35.86,43.47-6.37,7-3,14.36,2.23,21.36a69.9,69.9,0,0,0,7.46,8.23c5.65,5.5,11.21,11.13,17.25,16.19,3.55,3,5.64,6,4.78,10.65-1.18,6.48,1.57,11.78,5.1,16.81C908,407,914,415.89,920.41,424.4c15.8,20.88,33.43,40,57.62,51.22,9.27,4.29,16.45,9.82,21.49,18.5,2.19,3.76,5.36,7.21,7.22,11a11.25,11.25,0,0,0,.26,2.29c.36,1.61,34.54,163.4-89.94,392.35a11.13,11.13,0,0,0,19.55,10.63c106.93-196.68,100.86-343.06,94.83-391.09a2.39,2.39,0,0,0,.22.12c-.19-2-.33-3.91-.57-5.86-.39-3.13,0-6.34,0-9.35,22.27-11.25,31.1-30.56,35.79-52.73C1071.6,428.94,1069.91,406.19,1068.92,383.53ZM941,268.05c4.33,4.77,3.62,10,2.33,16.7-9.85-4.34-18.61-8.38-27.53-12.06-4.58-1.88-7.4-4.49-8.63-9.64-2.41-10.12-5.63-20.06-9.35-33C916,241.82,928.79,254.59,941,268.05ZM811.87,208.51c21.9,4.09,40.2,9.9,57.48,19,4.91,2.58,7.57,5.49,8.07,11.51.63,7.63,3.05,15.12,4.84,23.27-6.83-.68-13.17-.87-19.31-2.1a25.42,25.42,0,0,1-11.08-4.88C836.61,242.48,823.87,227.44,811.87,208.51Zm84.2,111.42a135.26,135.26,0,0,1-34.17-36c25,3.15,48.85,7.34,70.18,20.63,8.07,5,13.11,11.24,13.8,22.24-15.07-1.59-30-3.11-44.81-4.8A11.06,11.06,0,0,1,896.07,319.93Zm4.63,26.75h0c.54-.6,1.12-1.76,1.61-1.71,20.61,1.76,41.27,3.25,61,10.18,15.78,5.53,16.58,7.07,12.42,23.09-.57,2.2-1.38,4.33-2.27,7.06a104.67,104.67,0,0,1-21.63-3.92C931.52,375.35,914.9,363.24,900.7,346.68ZM987,455.92c-24.11-14.64-40.79-34.49-58.33-58.1,24.59,6.57,46.13,11.3,66.36,23.95C992.44,432.81,989.88,443.71,987,455.92ZM995.33,320c-2.23,6.44-5.33,12.57-8.32,19.38-5-1.64-9-2.61-12.62-4.32-1.88-.88-4.22-2.91-4.5-4.71-3-19-4.56-38-1.88-59.79,11.66,13.66,20.71,26.16,27.14,40.38A13.47,13.47,0,0,1,995.33,320Zm10.7,80.07c-9.3-4.49-10.66-6.16-8.75-14.61,2.52-11.15,5.41-22.27,9-33.12,2.9-8.67,7.11-16.89,10.74-25.32l2.59-.34c2.63,11.53,5.5,23,7.71,34.62a14.08,14.08,0,0,1-1.85,9.14C1019.26,380.56,1012.51,390.33,1006,400.09Zm38.07,53.79c-2.71,11.24-9.09,20.13-18.26,26.95-5.73,4.27-8.62,3.46-12-2.92-6.63-12.36-5.17-25.39-.59-37.49,5.17-13.7,12.26-26.73,19.1-39.74,3.39-6.45,8.08-12.2,13.9-20.8C1048.92,406.49,1049.77,430.29,1044.1,453.88Z"/><path d="M902.87,686.85c-2.32-17.35-5.85-34.56-9.72-51.71-2.79-13.81-5.47-24.86-7.52-32.68-1-5.49-.07-9.07,4.1-13.08,11.24-10.8,15.83-24.63,17.2-39.88,3.43-38.09-8.06-73.25-20.89-108.17-2.18-5.92-6.5-8.92-12.83-8.46-2.49.19-4.93,1.12-7.2,1.67-1.44-2.65-2.29-4.29-3.21-5.9-7.13-12.47-13.9-25.16-21.54-37.32-4.64-7.37-9-8-16.47-4.34a32.35,32.35,0,0,0-4.35,2.85c-16.64-13.7-32.17-26.9-48.25-39.4-3.67-2.85-9.54-5-13.85-4.26-3.83.65-6.89,5.76-10.82,9.39-3.83-2.21-8.08-5.09-12.67-7.21-16.79-7.79-33.72-15.3-50.57-23-6.08-2.76-10.73-1.1-14.32,4.29-1.19,1.77-2.36,3.56-3.47,5.23-25.87-6.48-51.35-6.21-76.86-5.63C583,329.43,576,329,573,336.4c-3.17,7.73,1.66,13.21,6.75,18.27,2,2,3.78,4.1,5.87,5.94,15.25,13.43,30.55,26.8,46.48,40.74-.35,8.13-.77,8.61,5.77,14.3,12.92,11.24,26.22,22.08,39.69,32.66,3.92,3.07,7.17,5.46,6,11.13-1.29,6.31,2.17,10.56,7.16,13.86,9.67,6.39,19.25,12.89,29,19.18,3.14,2,6.56,3.37,6.06,8.19-.69,6.73,3.29,11.52,7.84,15.55,14.57,12.9,28.93,26.08,44.19,38.13,12.38,9.77,26.11,18.07,41.51,22.06,11.78,3.06,22.87,6.12,30.08,16.94a11.41,11.41,0,0,0,5.56,4c6.22,2.1,7.86,7.32,9.6,12.68.09.28.17.56.26.84,16.4,65.66,68.57,331.67-94.51,551.89A11.12,11.12,0,1,0,788.12,1176c72.5-97.91,103.37-203.84,114.7-294.18l1.29-6c.43-5.67.7-10,.9-13.83a743.27,743.27,0,0,0,3.45-78.64c-.17-18.95-1-36.92-2.32-53.77C905.62,715.3,904.76,701,902.87,686.85ZM776.38,380c10,10.05,20.13,20,30.08,30.18,4.44,4.53,6.57,9.4,3.63,16.12-2.14,4.88-2.5,10.55-3.62,15.71-16.87-.48-17.68-.66-22-15.2q-1.63-5.57-3.14-11.17c-.34-1.27-.66-2.56-1-3.84-.65-2.46-1.31-4.93-1.94-7.4-.69-2.72-1.36-5.43-2-8.15L774.81,390c-.69-2.72-1.37-5.45-2.08-8.17Zm-27,5.24c2.71,2.25,3.39,6.94,6.07,12.83-13.47-2.87-23.71-5.39-34.09-7.12-4.16-.69-6.59-2.41-8.44-5.95-4.88-9.34-9.93-18.58-16.34-30.53C717.93,362.19,734.24,372.76,749.33,385.23ZM630,370.66c-7.15-5.71-13.85-12-21.38-18.57,11.35,0,22-.64,32.56.2,8.67.7,17.14,3.84,25.81,4.63,6.8.62,9.53,4.22,11.74,9.8,2.87,7.24,6.33,14.26,9.83,22C664.36,396.17,646.87,384.17,630,370.66Zm90.13,72.79c-.55,0-1.1-.05-1.64-.09s-.81-.07-1.22-.12-1.08-.16-1.62-.26-.79-.14-1.17-.23c-.56-.13-1.11-.29-1.66-.46-.37-.12-.73-.22-1.09-.35-.6-.21-1.19-.48-1.79-.76-.3-.14-.6-.25-.9-.4a27.06,27.06,0,0,1-2.65-1.57c-11.68-8-23.57-15.68-35.37-23.49,20.62-2.62,40-4.69,59.09,0A186.33,186.33,0,0,1,751,422.57c6.86,2.59,11.32,7.55,13.06,16.13-1.68.26-3.26.53-4.8.78-.53.09-1.08.15-1.6.23-.91.13-1.81.28-2.71.38-9.13,1-18.31,1.68-27.41,2.9l-.32,0-1.17.13c-.6.07-1.21.13-1.81.18l-1.2.07c-.57,0-1.15,0-1.71,0Zm2.83,23.11c27.31-4.56,53.3-6.25,79.9-.27v24.15C773.35,494,747,486.71,722.94,466.56ZM831.2,528.87c-.93,8.14-1.63,16.31-2.53,25.54-.92,0-3.29.63-5.12-.1-22.13-8.83-40.77-22.77-59.65-40.72A196.6,196.6,0,0,1,824.33,519C830.12,520.44,831.82,523.42,831.2,528.87Zm11.23-43.68c-1.12,4.4-3.29,8.53-4.94,12.67l-3.12-.49-.57-.1c-.89-.15-1.67-.3-2.37-.46l-.38-.09a12.12,12.12,0,0,1-1.74-.53l-.2-.09a5.28,5.28,0,0,1-1.2-.71l0,0a3.43,3.43,0,0,1-.77-1l-.1-.18a5.86,5.86,0,0,1-.42-1.34c0-.09,0-.2-.05-.3a16.86,16.86,0,0,1-.2-1.82c0-.1,0-.23,0-.33,0-.71-.06-1.48-.08-2.36v-.09l-.06-2.21c0-.65,0-1.33-.07-2.06-.17-4.49-.19-9,0-13.47,0-.56,0-1.12.08-1.69.07-1.28.18-2.56.3-3.84,0-.56.07-1.13.13-1.7,0-.18,0-.36.08-.54l0-.36c.21-1.74.47-3.47.7-5.2.18-1.27.33-2.53.52-3.79.3-2,.63-4,1-6,.19-1.12.35-2.25.55-3.37.5-3,1-6,1.55-9,.55-3.18,1.1-6.37,1.62-9.55l2.94-.39a80.63,80.63,0,0,1,4.06,7c4.06,8.81,9.28,17.36,11.56,26.63C853.6,468.21,844.78,476,842.43,485.19ZM868,577.6c-15.19-9.44-15.64-23.81-14.94-38.14,1.16-23.42,9.71-44.89,19.23-67.9,1.73,3.31,3.17,5.28,3.85,7.49,6.13,19.88,11.52,40,10.89,61-.34,11.24-2.68,22.08-10.67,30.7C873.91,573.35,870.81,575.3,868,577.6Z"/><path class="cls-1" d="M1302.52,642.28a137.09,137.09,0,0,0-31.34-46.14,139.93,139.93,0,0,0-47-31.34,147,147,0,0,0-55.32-10.64h-60.17V840.08h68.87a140.88,140.88,0,0,0,50.3-12,147.87,147.87,0,0,0,43.33-29.5,144.59,144.59,0,0,0,31.34-156.31Z"/><polygon class="cls-1" points="1645.61 629.61 1604.7 553.68 1532.44 553.68 1610.02 697.7 1610.02 839.6 1681.11 839.6 1681.11 698.19 1758.68 553.68 1686.43 553.68 1645.61 629.61"/><polygon class="cls-1" points="1405.06 553.68 1305.91 839.6 1381.94 839.6 1405.54 772.18 1478.86 772.18 1502.17 839.6 1578.68 839.6 1479.53 553.68 1405.06 553.68"/><path d="M1152,828.34h-68.87a3.58,3.58,0,0,1-3.58-3.58V538.84a3.58,3.58,0,0,1,3.58-3.58h60.16a150.67,150.67,0,0,1,56.67,10.9,143.36,143.36,0,0,1,48.2,32.13,140.83,140.83,0,0,1,32.12,47.3h0a146.46,146.46,0,0,1-32.12,160.21A151.58,151.58,0,0,1,1203.77,816a144.88,144.88,0,0,1-51.57,12.3Zm-65.29-7.16h65.2a137.67,137.67,0,0,0,48.94-11.69,144.43,144.43,0,0,0,42.28-28.78,141,141,0,0,0,30.53-152.39h0a133.63,133.63,0,0,0-30.53-44.93,136.21,136.21,0,0,0-45.83-30.58,143.7,143.7,0,0,0-54-10.38h-56.58Z"/><path d="M1655.57,827.86h-71.09a3.58,3.58,0,0,1-3.58-3.58v-141l-77.15-143.23a3.59,3.59,0,0,1,3.16-5.28h72.25a3.57,3.57,0,0,1,3.15,1.89l37.76,70.07,37.67-70.07a3.59,3.59,0,0,1,3.15-1.89h72.26a3.59,3.59,0,0,1,3.15,5.28l-77.15,143.71V824.28A3.58,3.58,0,0,1,1655.57,827.86Zm-67.51-7.16H1652V682.86a3.57,3.57,0,0,1,.43-1.69l74.74-139.23H1663l-39.8,74a3.57,3.57,0,0,1-3.15,1.89h0a3.6,3.6,0,0,1-3.16-1.89l-39.9-74H1512.9l74.73,138.74a3.61,3.61,0,0,1,.43,1.7Z"/><path d="M1553.14,827.86h-76.51a3.57,3.57,0,0,1-3.38-2.41l-22.48-65h-68.23l-22.76,65a3.58,3.58,0,0,1-3.38,2.4h-76a3.59,3.59,0,0,1-3.38-4.75l99.15-285.93a3.58,3.58,0,0,1,3.38-2.41H1454a3.59,3.59,0,0,1,3.38,2.41l99.14,285.93a3.58,3.58,0,0,1-3.38,4.75Zm-74-7.16h68.93l-96.66-278.76h-69.38L1285.41,820.7h68.45l22.76-65a3.58,3.58,0,0,1,3.38-2.4h73.32a3.59,3.59,0,0,1,3.38,2.41Z"/><rect class="cls-4" x="565.9" y="899.05" width="788.19" height="156.52"/><path class="cls-1" d="M613.22,1005.71v-4.2c0-1.4.22-2.8.22-4.19s-.32-2.9-.32-4.3.32-2.79.32-4.19c0-1.94-.22-1.94-.22-4,0-1.4.22-2.9.22-4.31s-.32-2.9-.32-4.4.1-2.79.1-4.3.11-2.9.11-4.3-.11-2.91-.11-4.3-.1-2.9-.1-4.41.42-2.9.42-4.3-.1-2.91-.1-4.3-.11-2.9-.11-4.4a46,46,0,0,1,.43-5.49,11.86,11.86,0,0,1,1.08-3.55,7.42,7.42,0,0,1,2.47-2.69,12.07,12.07,0,0,1,3.54-1.4c1.19-.21,2.48-.1,3.88-.21a21.94,21.94,0,0,1,3.76-.21h4.84c1.61,0,3.22-.33,4.84-.33h4c2,0,2,.22,4.2.22,1.5,0,3.11.11,4.72.11s3.12-.33,4.73-.33a29.88,29.88,0,0,1,3.34.54,18.34,18.34,0,0,1,3.44.21,9.74,9.74,0,0,1,2.69,1.19,8,8,0,0,1,2.9,2.15,5.29,5.29,0,0,1,1,3.54,5.49,5.49,0,0,1-1.4,3.56,6.5,6.5,0,0,1-3,2.15,14,14,0,0,1-5.27,1.07h-2.91c-1.6,0-3.11-.11-4.73-.11s-3.11-.21-4.62-.21a31.09,31.09,0,0,0-4.51.32c-1.62.1-3.12.32-4.51.54a11.09,11.09,0,0,0-5.17,2,7.46,7.46,0,0,0-2.58,3.77,12.93,12.93,0,0,0-1.18,3.75,15.34,15.34,0,0,0,.22,3.88,16.23,16.23,0,0,0,.75,3.87,8.31,8.31,0,0,0,2.69,3.44,11.33,11.33,0,0,0,4,1.61c1.3.32,2.59.75,4,1a24.29,24.29,0,0,0,4,.33c1.29,0,1.29-.11,2.47-.11h3.87c1.29,0,2.58-.1,3.87,0s2.37.43,3.65.54a8.34,8.34,0,0,1,4,1.08,7,7,0,0,1,2.48,2.57,6.59,6.59,0,0,1,.54,3.55,6,6,0,0,1-1.19,3.55,7.44,7.44,0,0,1-3.22,2c-1.4.33-2.8.33-4.09.54s-2.79.21-4.19.21h-3.55c-1.83,0-1.83.11-3.65.22s-1.83.11-3.55.21a22.09,22.09,0,0,0-4.73.12,10.7,10.7,0,0,0-3.76,1.6,10,10,0,0,0-2.69,2.91,11.9,11.9,0,0,0-1.72,3.54,17,17,0,0,0-.43,4.74c0,1.39.1,1.39.1,2.79,0,1.83-.32,3.76-.32,5.59a16.81,16.81,0,0,1,0,3.33c-.1,1-.32,2-.53,3.34a6.9,6.9,0,0,1-1,2.47,7,7,0,0,1-2.59,3,6.51,6.51,0,0,1-3.86,1.19,6.4,6.4,0,0,1-3.87-1.29,7.84,7.84,0,0,1-2.59-3.12,12.08,12.08,0,0,1-1-5.26C613.33,1008.5,613.22,1007.1,613.22,1005.71Z"/><path class="cls-1" d="M707.86,1019.68a9.28,9.28,0,0,1-3.34-3.44,10.71,10.71,0,0,1-1.61-4.41c-.11-.86.21-1.72.21-2.8,0-1.39-.42-2.79-.42-4.29s.1-2.91.1-4.31.32-2.9.32-4.41-.1-2.9-.1-4.29.1-2.9.1-4.31-.42-2.9-.42-4.4.32-2.91.32-4.3v-4.3c0-1.51-.11-2.91-.11-4.41s.11-2.9.11-4.3-.22-2.9-.22-4.3V957c0-1.39.11-2.9.11-4.29s-.11-2.91-.11-4.31.22-2.9.22-4.41a25,25,0,0,1,.32-4.19,9.47,9.47,0,0,1,2.25-4.62,9,9,0,0,1,4.63-2.15,31.44,31.44,0,0,1,3.55-.65,21.3,21.3,0,0,1,3.66-.1h.1c1.4,0,2.79-.21,4.09-.21s2.79-.12,4.19-.12,2.79.12,4.19.12,2.69.21,4.08.21,2.8-.11,4.2-.11,2.69-.1,4.08-.1,2.8.21,4.2.21a31.45,31.45,0,0,1,3.22.21,16.1,16.1,0,0,1,3.23.33,12.26,12.26,0,0,1,3,1.39,7.29,7.29,0,0,1,2.69,2.26,6,6,0,0,1,.85,3.44,7.84,7.84,0,0,1-3.87,5.16,12.45,12.45,0,0,1-5.69,1c-1.29,0-1.29.42-2.48.42s-2.36-.32-3.54-.32-2.26.11-3.44.11H737a32.36,32.36,0,0,0-4.51.21c-1.51.12-2.91.44-4.52.65a14.56,14.56,0,0,0-4.62,1.4,8.74,8.74,0,0,0-3.23,3.66,11.33,11.33,0,0,0-1,4.73c0,.32.21.75.21,1.07,0,.53-.11,1.08-.11,1.62a11.82,11.82,0,0,0,1,3.44,10.66,10.66,0,0,0,1.82,3,9.54,9.54,0,0,0,3.23,1.83,19.37,19.37,0,0,0,4.52,1,34.59,34.59,0,0,0,4.72.11c1.29,0,2.48.1,3.77.1H742c1.19,0,2.48.22,3.66.22.22,0,.22-.32.43-.32,1,0,1.93.32,3,.43a13.71,13.71,0,0,1,3.54,1.07,7.64,7.64,0,0,1,2.91,2.15,6.69,6.69,0,0,1,1.29,3.44,5.72,5.72,0,0,1-1.29,3.23,7.67,7.67,0,0,1-2.69,2,13.93,13.93,0,0,1-3.22,1,18.52,18.52,0,0,1-3.44.44c-.65,0-.65.1-1.29.1-1.51,0-2.91-.32-4.41-.32s-3,.32-4.52.32a25.57,25.57,0,0,0-4,.11c-1.28.11-2.57.11-4,.32a13.3,13.3,0,0,0-4,1.29,9.06,9.06,0,0,0-3.22,2.69,10.84,10.84,0,0,0-1.94,3.87c-.21,1.19-.11,2.69-.21,4.31a13.25,13.25,0,0,0,1,4.51,9,9,0,0,0,2.26,3.76,11.27,11.27,0,0,0,3.76,2.37,17.61,17.61,0,0,0,6.13,1c.32,0,.75-.21,1.08-.21,1.93,0,3.76.32,5.69.32,1.51,0,3.12-.32,4.63-.32H748c1.18,0,2.36.1,3.65.21s2.36.44,3.66.65a14,14,0,0,1,2.79,1,6.39,6.39,0,0,1,3.87,4.61,6.82,6.82,0,0,1-2.37,5.6,7.86,7.86,0,0,1-4.29,1.93l-3.12.32H751c-.21,0-.43.12-.64.12h-.21c-2.15,0-2.15-.12-4.31-.12s-2.15.12-4.41.12-2.15-.22-4.29-.22-2.15.1-4.3.1h-4.3c-1.51,0-3,.12-4.52.12-1.29,0-2.58-.22-3.87-.22s-2.58.1-4,.1c-.1,0-.1-.1-.22-.1-1.17,0-2.25,0-3.44-.11A12.27,12.27,0,0,1,707.86,1019.68Z"/><path class="cls-1" d="M850.65,1005.38a20.09,20.09,0,0,1-2,3.33,16.89,16.89,0,0,1-2.15,3.34,23.83,23.83,0,0,1-3,2.58,37.3,37.3,0,0,1-3.13,2.58c-1.07.64-2.47,1-3.65,1.61a24.89,24.89,0,0,1-3.87,1.83,27.06,27.06,0,0,1-4.19,1.07c-1.4.22-2.8.32-4.2.43-.64,0-1.17-.33-1.72-.33-.32,0-.32.22-.75.22-1.07,0-2.14-.1-3.11-.1-1.3,0-2.59.32-3.87.21s-2.47-.43-3.77-.64-2.58-.22-3.76-.54a19.47,19.47,0,0,1-3-1.29c-1-.43-1.94-1-2.9-1.51a14.49,14.49,0,0,1-2.16-1.39,8.21,8.21,0,0,1-2.14-2.8,5.89,5.89,0,0,1-.54-3.65,8.64,8.64,0,0,1,2.15-3.45,8.17,8.17,0,0,1,3.65-1.61,14.34,14.34,0,0,1,3.66-.11,21.54,21.54,0,0,1,3.66.33l1.72.64a24.45,24.45,0,0,0,3.76,1,28.7,28.7,0,0,0,4,.86,78.74,78.74,0,0,0,8.07-.86,14.9,14.9,0,0,0,3.87-2.48,17.77,17.77,0,0,0,3.12-3.22,10.12,10.12,0,0,0,1.61-4,11.81,11.81,0,0,0-.54-4.31,8.42,8.42,0,0,0-1.94-3.76A18.64,18.64,0,0,0,829.7,986a23.28,23.28,0,0,0-4.52-2.26,31.81,31.81,0,0,1-3-1.07c-1-.32-1.94-.87-2.91-1.19-1.18-.43-2.47-.75-3.65-1.18s-2.26-1.07-3.44-1.61a44.79,44.79,0,0,1-4.52-1.83,37.88,37.88,0,0,1-4.08-2.58,21,21,0,0,1-3.65-3.22,17.69,17.69,0,0,1-2.69-3.66,18.21,18.21,0,0,1-2.05-4.09,19.86,19.86,0,0,1-.75-4.51c0-1.4,0-2.68.11-4a24.48,24.48,0,0,1,.64-4,22,22,0,0,1,.87-4,35.21,35.21,0,0,1,2-3.55,21.63,21.63,0,0,1,2.25-3.33,16.36,16.36,0,0,1,2.8-2.69,22.29,22.29,0,0,1,3.11-2,33.48,33.48,0,0,1,3.34-1.83,40.56,40.56,0,0,1,4.09-1.61c1.39-.43,2.79-1.19,4.19-1.5s2.9-.33,4.41-.55a29.54,29.54,0,0,1,4.41-.54c1.39,0,2.89.33,4.4.44a27.76,27.76,0,0,1,4.3.65c1.5.21,3,.31,4.41.63a20.08,20.08,0,0,1,2.79,1.62,13.85,13.85,0,0,1,2.58,1.82,5,5,0,0,1,1.62,3.56,5.36,5.36,0,0,1-1.18,3.65,7.81,7.81,0,0,1-2.48,2.48,6.92,6.92,0,0,1-3.33.63c-2,0-3.87.33-5.48.22s-2.91-.54-4.31-.75c-.53-.1-.43-.32-1-.43-1.29-.11-2.58.11-3.87.11a22.86,22.86,0,0,0-3.77.75,15.79,15.79,0,0,0-3.54,1.4,11.5,11.5,0,0,0-3.23,2.26,13.56,13.56,0,0,0-2.14,3.32,11.54,11.54,0,0,0-.65,3.88,10.39,10.39,0,0,0,.75,4,10.18,10.18,0,0,0,2.69,3.56,17.24,17.24,0,0,0,3.76,2.57,27.17,27.17,0,0,0,3,1.94c1.19.43,2.36,1,3.44,1.29,1.83.64,3.66,1.08,5.48,1.72,1.62.54,3.12,1.39,4.73,1.93A24.5,24.5,0,0,1,840,974.2a29.19,29.19,0,0,1,4.08,2.47,16,16,0,0,1,3.44,3.12,20.08,20.08,0,0,1,2.9,3.76,19.59,19.59,0,0,1,1.4,4.41,31.57,31.57,0,0,1,.75,4.62c0,1.41-.1,2.91-.22,4.53a16.87,16.87,0,0,1-.42,4.51A27.06,27.06,0,0,1,850.65,1005.38Z"/><path class="cls-1" d="M899.7,949.8a8,8,0,0,0-2.36-2.69,11.07,11.07,0,0,0-3.23-1.61,28.08,28.08,0,0,0-4.4-.64c-1-.12-2.15-.12-3.23-.33a31.21,31.21,0,0,1-3.11-.64,7.45,7.45,0,0,1-4-1.5,6,6,0,0,1-1.83-4,5.52,5.52,0,0,1,1.83-4.09,7.28,7.28,0,0,1,4.08-1.94c1.4-.21,2.69-.53,4.09-.75s2.79-.11,4.19-.11a.11.11,0,0,0,.11.11c1.29,0,2.58.11,4,.11s2.69-.11,4-.11,2.68-.11,4-.11h4c1.4,0,2.69.11,4,.11s2.69-.21,4.09-.21h4c1.29,0,2.69.1,4,.1s2.69-.1,4-.1,2.47.1,3.65.21L935,932c.75.12.64.54,1.4.65a6.82,6.82,0,0,1,4,1.82,5.36,5.36,0,0,1,2,3.88,5.48,5.48,0,0,1-1.82,4,8.25,8.25,0,0,1-4.09,1.72c-1.5.22-3,.33-4.41.54a12.79,12.79,0,0,0-1.93.21,3.48,3.48,0,0,0-1,.22,9.61,9.61,0,0,0-1.94.22,15.09,15.09,0,0,0-4.4,1.61,11.59,11.59,0,0,0-3,3.44,12.57,12.57,0,0,0-1.61,4.3c-.21,1.4-.11,2.8-.21,4-.12,1.52-.22,2.81-.22,4.09s-.33,2.8-.33,4.31v4.29c0,1.4.11,2.8.11,4.31s.32,2.79.32,4.29-.21,2.8-.21,4.31-.11,2.79-.11,4.29.11,2.8.11,4.31-.22,2.79-.22,4.29c0,2.16.22,2.16.22,4.19s-.11,2.16-.11,4.31c0,1.5.22,2.9.11,4.29a14,14,0,0,1-.43,3.23,7.74,7.74,0,0,1-2.47,4.3,6.56,6.56,0,0,1-4.52,1.72c-.1,0-.22-.1-.32-.1a7.54,7.54,0,0,1-4.84-1.62,8.82,8.82,0,0,1-2.15-4.72l-.64-4.09c-.11-1.4-.22-2.79-.22-4.19v-4.09c.11-1.39,0-2.69,0-4.08V988c0-2,.22-2,.22-4.19v-4.19c0-2.15-.22-2.15-.22-4.3,0-1.29.11-2.69.11-4.09s-.22-2.69-.22-4.08.11-2.8.11-4.08v-4.2a19.4,19.4,0,0,0-.65-5.91A10.91,10.91,0,0,0,899.7,949.8Z"/><path class="cls-5" d="M1055.86,996.06A5,5,0,0,0,1059,1004a14.9,14.9,0,0,0,5,.89c1.14,0,2.28,0,3.52.07s2.28.19,3.41.18,2.28.19,3.42.18,2.28-.12,3.42,0a7.73,7.73,0,0,1,3.21,1,5.79,5.79,0,0,1,2.61,2.05,3.69,3.69,0,0,1,.14,5.07,8.71,8.71,0,0,1-2.36,2.4,8.09,8.09,0,0,1-3.2.65c-1.76,0-3.52-.08-5.69-.06-1.66,0-1.66.12-3.31.13-1.86.12-3.83.34-5.89.46-1.15,0-2.49-.29-3.73-.17s-2.49.12-3.83.13-2.48.44-3.72.45-2.59-.08-3.83-.07-2.69.23-4.14.24l-3.31-.28c-1.14-.1-2.28-.19-3.42-.39a11.85,11.85,0,0,1-3.84-1.73,7.65,7.65,0,0,1-2.72-3.08,12.58,12.58,0,0,1-.86-4.13,19.47,19.47,0,0,1,3.84-11.21c1.33-1.56,2.76-3,4.1-4.38,1-.83,2.06-1.46,3.09-2.3s1.74-1.87,2.66-2.71,2.37-1.78,3.4-2.72,2-2.19,3.17-3.13,2.26-1.88,3.29-2.82c1.44-1.36,2.88-2.82,4.31-4.07,1.14-1,2.16-2.2,3.29-3.13s2.37-1.89,3.39-2.93,1.74-2.5,2.66-3.75c.71-1,1.22-2,1.73-2.8a27,27,0,0,0,1.43-3.12,11.74,11.74,0,0,0,.49-3.32,12.27,12.27,0,0,0-.77-4.44,9.73,9.73,0,0,0-2.71-3.5,16.14,16.14,0,0,0-3.54-2.76,11.18,11.18,0,0,0-4.36-1.1,12.45,12.45,0,0,0-4.34.76,17.14,17.14,0,0,0-4.13,1.69c-.71.52-1.43,1.15-2.15,1.78l-1.65,1.35c-.92.63-1.74,1.26-2.78,1.89a9.57,9.57,0,0,1-3.09,1.06,6.63,6.63,0,0,1-3.1.34,5.53,5.53,0,0,1-2.91-1.43,6.16,6.16,0,0,1-1.37-3,6.38,6.38,0,0,1,0-3.11,8.38,8.38,0,0,1,1.53-3.74,11.89,11.89,0,0,1,2.66-3,20.56,20.56,0,0,1,2.88-2.51c1-.73,2.16-1.26,3.19-1.89s2.37-1,3.5-1.37a23.79,23.79,0,0,1,3.72-.86c1.14-.21,2.38-.43,3.72-.55s2.48-.33,3.93-.34c1.24,0,2.59,0,4,.06a21.14,21.14,0,0,1,4.15.69,26.51,26.51,0,0,1,3.94,1.21,18.81,18.81,0,0,1,4,1.63,24.18,24.18,0,0,1,3.23,2.56,21.66,21.66,0,0,1,2.81,2.56,20.5,20.5,0,0,1,2,3.19,13.17,13.17,0,0,1,1.48,3.4,16.13,16.13,0,0,1,.65,3.73c.22,1.34.53,2.47.65,3.71s-.29,2.49-.38,3.73a20.28,20.28,0,0,1-.39,3.63,37.42,37.42,0,0,1-1,3.62,24.67,24.67,0,0,1-1.94,4.16,31.75,31.75,0,0,1-2.65,3.85,42.13,42.13,0,0,1-2.77,3.23c-.92,1-2.16,1.78-3.18,2.82s-1.85,2.09-2.87,3c-.82.73-.93.62-1.75,1.36-1,.94-2.16,1.88-3.29,2.82s-2.26,2.29-3.38,3.34-2.37,2.19-3.5,3.34A17.11,17.11,0,0,0,1055.86,996.06Z"/><path class="cls-5" d="M1162.35,962.49c.22,1.24.34,2.37.45,3.61a19.84,19.84,0,0,1,.24,3.52,21.67,21.67,0,0,1-.07,3.62c0,1.45.33,2.89.23,4.35a26.54,26.54,0,0,1-.37,4.24c-.1,1.45-.18,2.9-.38,4.35s-.39,2.9-.69,4.35c-.3,1.25-.81,2.39-1.21,3.63a38,38,0,0,1-.8,3.74c-.5,1.24-1.22,2.28-1.73,3.42s-1.32,2.29-1.94,3.33a23.24,23.24,0,0,1-2.24,3.12,34,34,0,0,1-2.57,3c-1,.83-2.15,1.57-3.18,2.3a27.61,27.61,0,0,1-3.41,1.89,22.87,22.87,0,0,1-3.7,1.58,15.93,15.93,0,0,1-3.93.55,34.06,34.06,0,0,1-4.76.36c-1,0-2,0-3-.08-1.45-.2-2.9-.19-4.25-.49a19.17,19.17,0,0,1-4.15-1.41,23.47,23.47,0,0,1-3.74-2.14,38.68,38.68,0,0,1-3.34-2.56,41.82,41.82,0,0,1-3-3.08,21.17,21.17,0,0,1-2.41-3.49,24.34,24.34,0,0,1-1.89-3.61,39.85,39.85,0,0,1-1.69-3.61l-1.27-3.82c-.33-1.55-.55-3-.76-4.34a28.47,28.47,0,0,1-.76-4.23,31.73,31.73,0,0,1-.35-4.24,27.28,27.28,0,0,0,0-3c0-.62-.21-.62-.33-1.24a4.47,4.47,0,0,1,.11-.52,5.07,5.07,0,0,1-.22-1.44c.09-1.25.08-2.49.17-3.73l.28-3.73c.09-1.25,0-2.48.18-3.73s.6-2.49.79-3.73.19-2.49.49-3.73.6-2.38,1-3.63.71-2.38,1.22-3.53a27.68,27.68,0,0,1,2-3.53,25.34,25.34,0,0,1,1.82-3.74,26.37,26.37,0,0,1,2.67-3,18.28,18.28,0,0,1,3-2.71,32.06,32.06,0,0,1,3.5-2.2c1.24-.53,2.47-1.16,3.82-1.59s2.68-.44,3.92-.76a26.83,26.83,0,0,1,4-.65,26,26,0,0,1,4,.07,23.8,23.8,0,0,1,3.93.38c1.35.3,2.59.81,3.84,1.21a25.56,25.56,0,0,1,3.84,1.52c1.25.72,2.6,1.43,3.75,2.25a18.64,18.64,0,0,1,3.13,3.28,19.56,19.56,0,0,1,2.82,3.49,34.63,34.63,0,0,1,2.21,3.81,36.14,36.14,0,0,1,1.37,3.62,27.4,27.4,0,0,1,1.48,3.61,22.17,22.17,0,0,1,1,3.71c.32,1.24.54,2.48.76,3.83A7.79,7.79,0,0,1,1162.35,962.49Zm-13.67,10.35c0-.72.19-1.45.19-2.17a27.24,27.24,0,0,0,0-4.14c-.11-1.45-.54-2.89-.76-4.24l-.65-4.13c-.32-1.13-.64-2.27-1.06-3.4a19.68,19.68,0,0,0-1.79-3.2,18.68,18.68,0,0,0-2.09-2.88,13.81,13.81,0,0,0-2.61-2.77,12,12,0,0,0-3.43-1.73,15.39,15.39,0,0,0-3.73-.69c-.31,0-.52-.31-.73-.31a11.42,11.42,0,0,0-3.3.76,16.58,16.58,0,0,0-3.21,1.16,17,17,0,0,0-2.56,2.2,31.93,31.93,0,0,0-2.56,3.12,24.54,24.54,0,0,0-2,3.64,24.12,24.12,0,0,0-1.11,3.94,24.87,24.87,0,0,0-1.2,4.77c-.19,1.66-.08,3.31-.27,5,0,.1,0,.1-.1.21-.09,1.34-.08,2.79-.17,4.14s-.29,2.79-.28,4.14.54,2.79.66,4.13.23,2.79.45,4.24.54,2.69.86,4,.64,2.68,1.07,4a14.82,14.82,0,0,0,1.58,3.71,14.42,14.42,0,0,0,2.3,3.29,16.29,16.29,0,0,0,3,2.46,13.13,13.13,0,0,0,3.53,1.83,10.71,10.71,0,0,0,4,.38,13.62,13.62,0,0,0,3.92-.65,13.9,13.9,0,0,0,3.51-2.1,10.6,10.6,0,0,0,2.77-2.92,30.11,30.11,0,0,0,2.25-2.92c.61-1.14,1-2.28,1.52-3.43a19.47,19.47,0,0,0,.9-3.63,23.49,23.49,0,0,0,.8-3.62c.2-1.25.08-2.49.18-3.73s.18-2.49.17-3.72,0-2.49-.13-3.73A3.33,3.33,0,0,1,1148.68,972.84Z"/><path class="cls-5" d="M1203,994.84a5.92,5.92,0,0,0-.68,4.87,5.84,5.84,0,0,0,3.86,3.07,14.85,14.85,0,0,0,5,.89c1.14,0,2.27,0,3.52.07s2.27.19,3.41.18,2.28.19,3.42.18,2.28-.12,3.41,0a7.82,7.82,0,0,1,3.22,1,5.71,5.71,0,0,1,2.6,2,3.69,3.69,0,0,1,.15,5.07,8.71,8.71,0,0,1-2.36,2.4,8.1,8.1,0,0,1-3.21.65c-1.75,0-3.52-.08-5.68-.06-1.66,0-1.66.12-3.32.13-1.85.12-3.82.34-5.89.46-1.14,0-2.49-.29-3.73-.17s-2.48.12-3.82.13-2.49.44-3.72.45-2.59-.08-3.84-.07-2.68.23-4.13.24l-3.32-.28c-1.13-.1-2.27-.19-3.41-.39a11.75,11.75,0,0,1-3.84-1.73,7.58,7.58,0,0,1-2.72-3.08,11.73,11.73,0,0,1-.28-8.07,17.37,17.37,0,0,1,3.25-7.27c1.34-1.56,2.77-3,4.11-4.38,1-.83,2-1.46,3.08-2.3s1.75-1.87,2.67-2.71,2.37-1.78,3.39-2.72,2-2.19,3.18-3.13,2.26-1.88,3.29-2.82c1.44-1.36,2.87-2.82,4.31-4.07,1.13-1,2.16-2.2,3.28-3.13s2.37-1.89,3.4-2.93,1.74-2.5,2.65-3.75c.72-1,1.23-2,1.74-2.8a26.89,26.89,0,0,0,1.42-3.12,11.74,11.74,0,0,0,.49-3.32,12.06,12.06,0,0,0-.76-4.44,9.76,9.76,0,0,0-2.72-3.5,15.91,15.91,0,0,0-3.54-2.76,11.14,11.14,0,0,0-4.35-1.1,12.45,12.45,0,0,0-4.34.76,17,17,0,0,0-4.13,1.69c-.72.52-1.44,1.15-2.16,1.78l-1.64,1.35c-.93.63-1.75,1.26-2.78,1.89a9.63,9.63,0,0,1-3.1,1.06,6.6,6.6,0,0,1-3.1.34,5.53,5.53,0,0,1-2.9-1.43,6.17,6.17,0,0,1-1.38-3,6.39,6.39,0,0,1,0-3.11,8.37,8.37,0,0,1,1.52-3.74,12.08,12.08,0,0,1,2.66-3,21.76,21.76,0,0,1,2.88-2.51c1-.73,2.16-1.26,3.19-1.89s2.37-1,3.51-1.37a23.79,23.79,0,0,1,3.72-.86c1.13-.21,2.37-.43,3.72-.55s2.48-.33,3.93-.34c1.24,0,2.59,0,4,.06a21.14,21.14,0,0,1,4.15.69,26.88,26.88,0,0,1,3.94,1.21,18.81,18.81,0,0,1,4,1.63,24.93,24.93,0,0,1,3.22,2.56,21.12,21.12,0,0,1,2.82,2.56,20.43,20.43,0,0,1,2,3.19,12.52,12.52,0,0,1,1.48,3.4,15.62,15.62,0,0,1,.65,3.73c.22,1.34.54,2.47.65,3.71s-.29,2.49-.38,3.73a20.29,20.29,0,0,1-.38,3.63,34.76,34.76,0,0,1-1,3.62,23.85,23.85,0,0,1-1.93,4.16,31.75,31.75,0,0,1-2.65,3.85c-.93,1.15-1.85,2.3-2.77,3.23s-2.16,1.78-3.19,2.82-1.84,2.09-2.87,3c-.82.73-.93.63-1.75,1.36-1,.94-2.16,1.88-3.28,2.82s-2.26,2.29-3.39,3.34-2.36,2.19-3.49,3.34A17.11,17.11,0,0,0,1203,994.84Z"/><path class="cls-5" d="M1278.66,994.21a5,5,0,0,0,3.18,7.94,15.16,15.16,0,0,0,5,.89c1.14,0,2.28,0,3.52.07s2.28.19,3.41.18,2.28.19,3.42.18,2.28-.12,3.41,0a7.73,7.73,0,0,1,3.22,1,5.72,5.72,0,0,1,2.61,2,3.7,3.7,0,0,1,.14,5.07,8.67,8.67,0,0,1-2.36,2.39,7.92,7.92,0,0,1-3.2.65c-1.76,0-3.52-.07-5.69-.06-1.66,0-1.66.13-3.31.14-1.86.12-3.83.34-5.9.46-1.14,0-2.48-.29-3.73-.17s-2.48.12-3.82.13-2.48.44-3.72.45-2.59-.09-3.83-.08-2.69.23-4.14.25l-3.31-.29c-1.14-.09-2.28-.18-3.42-.38a11.85,11.85,0,0,1-3.84-1.73,7.71,7.71,0,0,1-2.72-3.08,11.73,11.73,0,0,1-.28-8.07,17.37,17.37,0,0,1,3.25-7.27c1.34-1.56,2.77-3,4.11-4.38,1-.83,2.06-1.47,3.08-2.3s1.75-1.88,2.67-2.71,2.37-1.78,3.39-2.72,2-2.2,3.18-3.13,2.26-1.89,3.29-2.82c1.44-1.36,2.88-2.82,4.32-4.08,1.12-1,2.15-2.19,3.28-3.13s2.36-1.88,3.39-2.93,1.74-2.49,2.66-3.74c.71-1,1.22-2,1.73-2.81a27,27,0,0,0,1.43-3.11,12.41,12.41,0,0,0-.28-7.76,9.75,9.75,0,0,0-2.71-3.5,16.55,16.55,0,0,0-3.55-2.77,11.12,11.12,0,0,0-4.35-1.09,12.45,12.45,0,0,0-4.34.76,17.11,17.11,0,0,0-4.12,1.68c-.72.53-1.44,1.16-2.16,1.78l-1.65,1.36c-.92.63-1.74,1.26-2.77,1.89a10.23,10.23,0,0,1-3.1,1.06,6.61,6.61,0,0,1-3.1.33,5.44,5.44,0,0,1-2.91-1.42,6.16,6.16,0,0,1-1.38-3,6.38,6.38,0,0,1,0-3.11,8.45,8.45,0,0,1,1.52-3.73,11.94,11.94,0,0,1,2.67-3,21.06,21.06,0,0,1,2.87-2.51c1-.74,2.17-1.26,3.19-1.89s2.37-1,3.51-1.37a23.83,23.83,0,0,1,3.72-.87,36.86,36.86,0,0,1,3.72-.54c1.24-.12,2.48-.33,3.93-.35,1.24,0,2.59,0,4,.07a20.43,20.43,0,0,1,4.15.69,24.65,24.65,0,0,1,3.94,1.21,18.29,18.29,0,0,1,4,1.63,25.63,25.63,0,0,1,3.23,2.55,21.72,21.72,0,0,1,2.81,2.57,20,20,0,0,1,2,3.19,13.17,13.17,0,0,1,1.48,3.4A15.6,15.6,0,0,1,1308,948c.22,1.34.54,2.48.65,3.72s-.28,2.49-.38,3.73a19.21,19.21,0,0,1-.38,3.62,37.63,37.63,0,0,1-1,3.63,25.42,25.42,0,0,1-1.94,4.16,31.75,31.75,0,0,1-2.65,3.85c-.93,1.14-1.84,2.29-2.77,3.23s-2.16,1.78-3.19,2.82-1.84,2.08-2.87,3c-.82.73-.92.62-1.74,1.35-1,1-2.16,1.89-3.29,2.83s-2.26,2.29-3.39,3.33-2.36,2.2-3.49,3.35A17.11,17.11,0,0,0,1278.66,994.21Z"/></svg>