<svg id="Layer_1" data-name="Layer 1" xmlns="http://www.w3.org/2000/svg" viewBox="0 0 1597.37 1008.25"><defs><style>.cls-1{fill:#fff;}.cls-2{fill:#e7e216;}.cls-3{fill:none;}.cls-4{fill:#231f20;}.cls-5{fill:#6dccdc;}</style></defs><polygon class="cls-1" points="100.21 550.04 166.08 550.04 166.08 657.41 237.18 657.41 237.18 371.49 166.08 371.49 166.08 478.95 100.21 478.95 100.21 371.49 29.12 371.49 29.12 657.41 100.21 657.41 100.21 550.04"/><polygon class="cls-1" points="564.21 657.41 635.3 657.41 635.3 516 712.88 371.49 640.63 371.49 599.8 447.42 558.89 371.49 486.63 371.49 564.21 515.51 564.21 657.41"/><polygon class="cls-1" points="360.6 589.99 433.82 589.99 457.23 657.41 533.64 657.41 434.5 371.49 360.02 371.49 260.88 657.41 336.9 657.41 360.6 589.99"/><path d="M211.64,645.67H140.55a3.58,3.58,0,0,1-3.58-3.58V538.3H78.26V642.09a3.58,3.58,0,0,1-3.59,3.58H3.58A3.58,3.58,0,0,1,0,642.09V356.17a3.58,3.58,0,0,1,3.58-3.59H74.67a3.59,3.59,0,0,1,3.59,3.59V460.05H137V356.17a3.58,3.58,0,0,1,3.58-3.59h71.09a3.58,3.58,0,0,1,3.58,3.59V642.09A3.58,3.58,0,0,1,211.64,645.67Zm-67.51-7.16h63.93V359.75H144.13V463.63a3.58,3.58,0,0,1-3.58,3.58H74.67a3.58,3.58,0,0,1-3.58-3.58V359.75H7.16V638.51H71.09V534.72a3.58,3.58,0,0,1,3.58-3.58h65.88a3.58,3.58,0,0,1,3.58,3.58Z"/><path d="M609.77,645.67h-71.1a3.58,3.58,0,0,1-3.58-3.58v-141L457.94,357.86a3.59,3.59,0,0,1,3.16-5.28h72.25a3.57,3.57,0,0,1,3.15,1.89l37.76,70.07,37.68-70.07a3.57,3.57,0,0,1,3.15-1.89h72.25a3.59,3.59,0,0,1,3.16,5.28L613.35,501.57V642.09A3.58,3.58,0,0,1,609.77,645.67Zm-67.52-7.16h63.93V500.67a3.57,3.57,0,0,1,.43-1.69l74.74-139.23H617.23l-39.81,74a3.57,3.57,0,0,1-3.15,1.89h0a3.6,3.6,0,0,1-3.16-1.89l-39.9-74H467.09l74.73,138.74a3.64,3.64,0,0,1,.43,1.7Z"/><path d="M508.11,645.67H431.7a3.59,3.59,0,0,1-3.39-2.41l-22.57-65H337.6l-22.86,65a3.57,3.57,0,0,1-3.37,2.39h-76a3.58,3.58,0,0,1-3.38-4.75L331.1,355a3.59,3.59,0,0,1,3.38-2.41H409a3.59,3.59,0,0,1,3.39,2.41l99.14,285.93a3.59,3.59,0,0,1-3.38,4.75Zm-73.87-7.16h68.84L406.41,359.75H337L240.37,638.51h68.46l22.85-65a3.59,3.59,0,0,1,3.38-2.39h73.22a3.59,3.59,0,0,1,3.39,2.41Z"/><path class="cls-2" d="M927.21,211.24c-.44-10.08-3.14-20.07-5-30.07-1-5.48-3.72-9.95-10-9.45-7.87.62-8.36-4.11-9.86-10.1a274.56,274.56,0,0,0-11.6-35.57c-1.72-4.28-5.91-8.82-10.08-10.48-3.26-1.3-8.21,1.68-12.62,2.81-3.29-4.85-6.44-10-10.11-14.78-9-11.76-18-23.58-27.56-34.92-8.54-10.14-13.08-9.87-22.41-.1-.53.56-1.31.87-.72.49C789.32,55.72,772,42.58,754.38,29.87c-3.6-2.6-8.49-5.27-12.53-4.91-4.35.39-8.4,4.29-12.83,6.8-23.08-10.41-47.85-16.24-72.89-20.85-6.1-1.13-13-2.63-18,3.68-5.45,6.82-.76,12.49,2.39,17.79,10.9,18.39,23.28,35.74,38.21,51.14C682,87,685,89.9,683.12,95.45c-1.76,5.31.85,9.68,4.37,13.86,11.94,14.16,23.6,28.55,35.87,43.46-6.37,7-3,14.36,2.22,21.36a68.43,68.43,0,0,0,7.47,8.23c5.64,5.51,11.2,11.14,17.24,16.19,3.56,3,5.64,6,4.79,10.66-1.18,6.47,1.57,11.78,5.1,16.81,6.13,8.73,12.09,17.58,18.52,26.08,15.79,20.89,33.43,40,57.62,51.22,9.26,4.3,16.44,9.83,21.49,18.51,2.19,3.75,5.36,7.21,7.22,11a11.33,11.33,0,0,0,.26,2.29c.36,1.61,34.53,163.39-89.94,392.34a11.12,11.12,0,1,0,19.54,10.63C901.82,541.42,895.76,395,889.73,347a2.25,2.25,0,0,0,.22.11c-.2-1.95-.33-3.9-.57-5.86a74.92,74.92,0,0,1-.06-9.35c22.28-11.25,31.11-30.56,35.79-52.72C929.88,256.65,928.19,233.9,927.21,211.24Z"/><path class="cls-2" d="M764.43,557.34c-.53-14.33-1.39-28.63-3.27-42.78-2.32-17.36-5.85-34.57-9.72-51.71C748.64,449,746,438,743.92,430.17c-1-5.49-.07-9.07,4.1-13.08,11.24-10.8,15.83-24.64,17.2-39.88,3.42-38.09-8.06-73.25-20.89-108.17-2.18-5.93-6.51-8.92-12.83-8.46-2.49.18-4.93,1.12-7.21,1.66-1.44-2.65-2.29-4.29-3.2-5.89C714,243.88,707.18,231.18,699.54,219c-4.63-7.38-9-8-16.47-4.34a32.52,32.52,0,0,0-4.35,2.84c-16.63-13.69-32.16-26.9-48.24-39.39-3.67-2.85-9.55-5-13.86-4.27-3.82.66-6.89,5.77-10.81,9.39-3.84-2.21-8.08-5.08-12.67-7.21-16.8-7.78-33.72-15.3-50.57-23-6.08-2.77-10.74-1.1-14.33,4.28l-3.46,5.24c-25.88-6.48-51.35-6.22-76.86-5.63-6.6.15-13.65-.24-16.68,7.13-3.18,7.72,1.66,13.2,6.74,18.26,2,2,3.79,4.11,5.88,5.94,15.25,13.43,30.55,26.8,46.48,40.75-.35,8.12-.78,8.61,5.76,14.29C509,254.59,522.32,265.44,535.8,276c3.92,3.07,7.17,5.46,6,11.13C540.52,293.46,544,297.7,549,301c9.66,6.39,19.24,12.89,29,19.17,3.14,2,6.55,3.38,6.06,8.2-.69,6.73,3.29,11.51,7.83,15.54,14.58,12.9,28.94,26.09,44.19,38.13q2.52,2,5.12,3.88c4.59-4.07,10.86-6.66,18.93-6.66,19,0,29.38,14.18,30.7,28.89,6.58,2.58,12.44,6.28,16.85,12.89a11.4,11.4,0,0,0,5.55,4.05c6.23,2.1,7.87,7.32,9.61,12.68.09.28.16.56.25.84,16.41,65.65,68.57,331.67-94.51,551.89a11.13,11.13,0,0,0,17.89,13.24c72.5-97.91,103.37-203.85,114.69-294.19l1.3-6c.43-5.67.69-10,.89-13.84a740.59,740.59,0,0,0,3.46-78.63C766.57,592.16,765.72,574.19,764.43,557.34Z"/><path class="cls-3" d="M641.52,308.25V284.1c-26.6-6-52.58-4.29-79.9.27C585.63,304.52,612,311.83,641.52,308.25Z"/><path class="cls-3" d="M754.46,90.5c8.92,3.68,17.68,7.72,27.54,12.06,1.28-6.68,2-11.93-2.34-16.7-12.19-13.46-24.94-26.23-43.18-37.95,3.72,12.89,6.95,22.83,9.36,33C747.06,86,749.88,88.62,754.46,90.5Z"/><path class="cls-3" d="M562.94,261.15l1.81-.18,1.16-.13.32,0c9.11-1.22,18.28-1.91,27.41-2.9.9-.1,1.81-.25,2.71-.38.52-.08,1.07-.14,1.6-.23,1.54-.25,3.12-.52,4.8-.78-1.73-8.58-6.2-13.54-13-16.13a186.5,186.5,0,0,0-20.93-6.81c-19.07-4.73-38.46-2.66-59.08,0,11.8,7.81,23.69,15.49,35.37,23.49a25.81,25.81,0,0,0,2.64,1.57c.3.15.61.26.91.4a18.46,18.46,0,0,0,1.79.76c.36.14.72.23,1.08.35.55.17,1.1.33,1.66.46.39.09.78.16,1.17.23.54.1,1.08.19,1.63.26.4.05.81.09,1.21.12l1.65.09H560c.57,0,1.14,0,1.71,0Z"/><path class="cls-3" d="M714.77,296.86c-.68-2.21-2.11-4.18-3.84-7.49-9.53,23-18.08,44.48-19.23,67.9-.71,14.33-.25,28.7,14.94,38.14,2.85-2.3,6-4.25,8.36-6.84,8-8.62,10.33-19.46,10.66-30.7C726.29,336.82,720.9,316.74,714.77,296.86Z"/><path class="cls-3" d="M678.31,249.52c-1.13-2.44-2.7-4.68-4.06-7l-3,.39c-.52,3.18-1.06,6.37-1.62,9.55-.52,3-1,6-1.55,9-.19,1.12-.36,2.25-.54,3.37-.33,2-.67,4-1,6-.19,1.26-.33,2.52-.51,3.79-.24,1.73-.5,3.46-.71,5.2l0,.36c0,.18,0,.36-.07.54-.07.57-.08,1.14-.13,1.7-.12,1.28-.23,2.56-.31,3.84,0,.57-.05,1.13-.07,1.69-.19,4.49-.18,9,0,13.47,0,.73.05,1.41.06,2.06l.06,2.21v.09c0,.88.05,1.65.09,2.36,0,.1,0,.23,0,.33a17,17,0,0,0,.19,1.82l.06.3a5.87,5.87,0,0,0,.41,1.34,1.74,1.74,0,0,0,.11.18,3.4,3.4,0,0,0,.76,1l.05,0a5.07,5.07,0,0,0,1.2.71l.2.09a12,12,0,0,0,1.73.53l.39.09c.69.16,1.47.31,2.37.46l.56.1,3.13.49c1.65-4.14,3.81-8.27,4.93-12.67,2.36-9.23,11.17-17,8.75-26.85C687.59,266.88,682.36,258.33,678.31,249.52Z"/><path class="cls-3" d="M615.08,214.05c.68,2.72,1.36,5.43,2,8.15.63,2.47,1.28,4.94,1.93,7.4.34,1.28.66,2.57,1,3.84q1.5,5.61,3.13,11.17c4.29,14.54,5.09,14.72,22,15.2,1.12-5.16,1.48-10.83,3.61-15.71,3-6.72.82-11.59-3.63-16.12-9.95-10.14-20-20.13-30.08-30.18l-3.64,1.81c.7,2.72,1.39,5.45,2.07,8.17Z"/><path class="cls-3" d="M527.22,206.55c-3.49-7.76-7-14.78-9.82-22-2.22-5.58-4.94-9.18-11.75-9.8-8.67-.79-17.14-3.93-25.81-4.63-10.54-.84-21.21-.2-32.56-.2,7.53,6.58,14.23,12.86,21.38,18.57C485.55,202,503.05,214,527.22,206.55Z"/><path class="cls-3" d="M560,208.75c10.38,1.73,20.63,4.25,34.1,7.12C591.41,210,590.72,205.29,588,203c-15.09-12.47-31.4-23-52.79-30.77,6.41,11.95,11.46,21.19,16.33,30.53C553.4,206.34,555.83,208.06,560,208.75Z"/><path class="cls-3" d="M663,336.85a196.6,196.6,0,0,0-60.43-5.45c18.88,18,37.52,31.89,59.66,40.72,1.82.73,4.2.1,5.12.1.9-9.23,1.59-17.4,2.52-25.54C670.51,341.23,668.8,338.25,663,336.85Z"/><path class="cls-3" d="M866,179.14c-2.2-11.62-5.08-23.1-7.71-34.63l-2.58.34c-3.63,8.43-7.85,16.65-10.74,25.32-3.62,10.85-6.5,22-9,33.13-1.91,8.44-.56,10.11,8.75,14.6,6.47-9.76,13.22-19.53,19.45-29.63A14,14,0,0,0,866,179.14Z"/><path class="cls-3" d="M871,218.49c-6.84,13-13.92,26-19.1,39.74-4.57,12.1-6,25.13.59,37.49,3.42,6.38,6.31,7.19,12,2.92,9.17-6.82,15.55-15.71,18.25-26.95,5.68-23.59,4.83-47.39,2.11-74C879.08,206.29,874.38,212,871,218.49Z"/><path class="cls-3" d="M806.7,88.39c-2.68,21.75-1.1,40.81,1.87,59.79.28,1.8,2.63,3.83,4.51,4.71,3.66,1.71,7.66,2.68,12.61,4.32,3-6.81,6.09-12.94,8.32-19.38a13.41,13.41,0,0,0-.18-9.06C827.41,114.55,818.35,102.05,806.7,88.39Z"/><path class="cls-3" d="M720.94,80.08c-1.78-8.15-4.21-15.64-4.84-23.27-.5-6-3.15-8.93-8.07-11.51-17.28-9.08-35.57-14.89-57.47-19,12,18.93,24.74,34,40,46.78A25.47,25.47,0,0,0,701.63,78C707.77,79.21,714.12,79.4,720.94,80.08Z"/><path class="cls-3" d="M825.69,273.74c2.87-12.22,5.44-23.12,8-34.16-20.23-12.65-41.77-17.38-66.36-24C784.9,239.24,801.58,259.09,825.69,273.74Z"/><path class="cls-3" d="M784.57,144.64c-.7-11-5.74-17.21-13.81-22.24-21.32-13.29-45.21-17.48-70.18-20.63a135.57,135.57,0,0,0,34.17,36,11.16,11.16,0,0,0,5,2.1C754.61,141.53,769.49,143.05,784.57,144.64Z"/><path class="cls-3" d="M812.17,203.1c.88-2.73,1.69-4.86,2.26-7.06,4.16-16,3.36-17.55-12.42-23.09-19.74-6.93-40.41-8.42-61-10.18-.48-.05-1.07,1.11-1.61,1.71h0c14.21,16.56,30.82,28.67,51.16,34.69A104.54,104.54,0,0,0,812.17,203.1Z"/><path d="M907.61,201.34c-.44-10.08-3.15-20.07-5-30.07-1-5.48-3.72-9.94-10-9.45-7.87.63-8.37-4.1-9.86-10.1a273.92,273.92,0,0,0-11.6-35.56c-1.73-4.29-5.92-8.83-10.08-10.49-3.26-1.29-8.21,1.68-12.62,2.81-3.29-4.85-6.44-10-10.11-14.78-9-11.76-18-23.57-27.56-34.91-8.54-10.15-13.08-9.88-22.41-.1-.53.55-1.31.87-.73.49C769.72,45.83,752.4,32.69,734.78,20c-3.6-2.6-8.5-5.26-12.53-4.9-4.36.38-8.4,4.29-12.83,6.8C686.34,11.45,661.57,5.63,636.53,1c-6.1-1.12-13-2.63-18,3.68-5.44,6.82-.75,12.5,2.4,17.8,10.89,18.38,23.28,35.74,38.2,51.13,3.33,3.43,6.3,6.38,4.44,11.94-1.76,5.31.85,9.68,4.37,13.85,11.94,14.16,23.6,28.56,35.87,43.47-6.37,7-3,14.36,2.22,21.36a70,70,0,0,0,7.47,8.23c5.64,5.5,11.2,11.13,17.24,16.19,3.55,3,5.64,6,4.79,10.65-1.19,6.48,1.57,11.78,5.1,16.81,6.12,8.73,12.09,17.58,18.52,26.09,15.79,20.88,33.43,40,57.61,51.22,9.27,4.29,16.45,9.82,21.5,18.5,2.18,3.76,5.35,7.21,7.21,11a10.6,10.6,0,0,0,.27,2.29c.36,1.61,34.53,163.4-89.94,392.35a11.12,11.12,0,1,0,19.54,10.63c106.93-196.68,100.87-343.06,94.83-391.09a1.67,1.67,0,0,0,.23.12c-.2-2-.33-3.91-.58-5.86a76.88,76.88,0,0,1,0-9.35c22.27-11.25,31.1-30.56,35.79-52.73C910.28,246.75,908.59,224,907.61,201.34Zm-128-115.48c4.33,4.77,3.62,10,2.34,16.7-9.86-4.34-18.62-8.38-27.54-12.06-4.58-1.88-7.4-4.49-8.62-9.64-2.41-10.12-5.64-20.06-9.36-32.95C754.72,59.63,767.47,72.4,779.66,85.86ZM650.56,26.32c21.9,4.09,40.19,9.9,57.47,19,4.92,2.58,7.57,5.49,8.07,11.51.63,7.63,3.06,15.12,4.84,23.27-6.82-.68-13.17-.87-19.31-2.1a25.47,25.47,0,0,1-11.08-4.88C675.3,60.29,662.56,45.25,650.56,26.32Zm84.19,111.42a135.57,135.57,0,0,1-34.17-36c25,3.15,48.86,7.34,70.18,20.63,8.07,5,13.11,11.24,13.81,22.24-15.08-1.59-30-3.11-44.82-4.8A11.16,11.16,0,0,1,734.75,137.74Zm4.63,26.75h0c.54-.6,1.13-1.76,1.61-1.71,20.61,1.76,41.28,3.25,61,10.18,15.78,5.54,16.58,7.07,12.42,23.09-.57,2.2-1.38,4.33-2.26,7.06a104.54,104.54,0,0,1-21.63-3.92C770.2,193.16,753.59,181.05,739.38,164.49Zm86.31,109.25c-24.11-14.65-40.79-34.5-58.33-58.11,24.59,6.57,46.13,11.3,66.36,24C831.13,250.62,828.56,261.52,825.69,273.74ZM834,137.83c-2.23,6.44-5.33,12.57-8.32,19.38-5-1.64-9-2.61-12.61-4.32-1.88-.88-4.23-2.91-4.51-4.71-3-19-4.55-38-1.87-59.79,11.65,13.66,20.71,26.16,27.13,40.38A13.41,13.41,0,0,1,834,137.83Zm10.71,80.07c-9.31-4.49-10.66-6.16-8.75-14.6,2.52-11.16,5.4-22.28,9-33.13,2.89-8.67,7.11-16.89,10.74-25.32l2.58-.34c2.63,11.53,5.51,23,7.71,34.63a14,14,0,0,1-1.85,9.13C857.94,198.37,851.19,208.14,844.72,217.9Zm38.06,53.79c-2.7,11.24-9.08,20.13-18.25,26.95-5.74,4.27-8.63,3.46-12-2.92-6.62-12.36-5.16-25.39-.59-37.49,5.18-13.7,12.26-26.73,19.1-39.74,3.39-6.45,8.09-12.2,13.9-20.8C887.61,224.3,888.46,248.1,882.78,271.69Z"/><path d="M741.55,504.67c-2.31-17.36-5.84-34.57-9.71-51.72-2.8-13.81-5.48-24.86-7.52-32.68-1-5.49-.07-9.07,4.1-13.08,11.24-10.8,15.83-24.63,17.2-39.88,3.42-38.08-8.06-73.25-20.89-108.17-2.18-5.92-6.51-8.92-12.83-8.46-2.5.19-4.93,1.12-7.21,1.67-1.44-2.65-2.29-4.29-3.21-5.9-7.12-12.47-13.9-25.16-21.54-37.32-4.63-7.37-9-8-16.47-4.34a32.35,32.35,0,0,0-4.35,2.85c-16.63-13.7-32.16-26.9-48.24-39.4-3.67-2.85-9.55-5-13.86-4.26-3.82.65-6.89,5.76-10.81,9.39-3.84-2.21-8.09-5.09-12.68-7.21-16.79-7.79-33.71-15.3-50.56-23-6.08-2.76-10.74-1.1-14.33,4.29-1.18,1.77-2.36,3.56-3.46,5.23-25.88-6.48-51.35-6.21-76.86-5.62-6.6.15-13.65-.24-16.68,7.12-3.18,7.73,1.66,13.21,6.74,18.27,2,2,3.79,4.1,5.87,5.94,15.25,13.43,30.56,26.8,46.48,40.74-.34,8.13-.77,8.61,5.77,14.3,12.93,11.24,26.22,22.08,39.7,32.66,3.92,3.07,7.16,5.46,6,11.13-1.28,6.31,2.18,10.56,7.17,13.86,9.66,6.39,19.24,12.89,29,19.18,3.14,2,6.55,3.37,6,8.19-.69,6.73,3.3,11.52,7.85,15.55,14.56,12.9,28.93,26.08,44.18,38.13,12.38,9.77,26.11,18.07,41.52,22.06,11.78,3.06,22.86,6.12,30.08,16.94a11.38,11.38,0,0,0,5.55,4c6.22,2.1,7.87,7.32,9.61,12.68.09.28.16.56.25.84,16.4,65.66,68.57,331.67-94.51,551.89a11.12,11.12,0,1,0,17.88,13.24C699.31,895.94,730.17,790,741.5,699.67l1.3-6c.43-5.67.69-10,.89-13.83a743.44,743.44,0,0,0,3.46-78.64c-.18-19-1-36.92-2.33-53.77C744.3,533.11,743.44,518.81,741.55,504.67ZM615.06,197.8c10,10,20.13,20,30.08,30.18,4.45,4.53,6.58,9.4,3.63,16.12-2.13,4.88-2.49,10.55-3.61,15.71-16.88-.48-17.68-.66-22-15.2q-1.63-5.56-3.13-11.17c-.34-1.27-.66-2.56-1-3.84-.65-2.46-1.3-4.93-1.93-7.4-.69-2.72-1.37-5.43-2-8.15l-1.59-6.27c-.68-2.72-1.37-5.45-2.07-8.17ZM588,203c2.71,2.25,3.4,6.94,6.08,12.83-13.47-2.87-23.72-5.39-34.1-7.12-4.16-.69-6.59-2.41-8.44-5.95-4.87-9.34-9.92-18.58-16.33-30.53C556.61,180,572.92,190.57,588,203ZM468.66,188.47c-7.15-5.71-13.85-12-21.38-18.57,11.35,0,22-.64,32.56.2,8.67.7,17.14,3.84,25.81,4.63,6.81.62,9.53,4.22,11.75,9.8,2.87,7.24,6.33,14.26,9.82,22C503.05,214,485.55,202,468.66,188.47Zm90.14,72.79-1.65-.09c-.4,0-.81-.07-1.21-.12-.55-.07-1.09-.16-1.63-.26-.39-.07-.78-.14-1.17-.23-.56-.13-1.11-.29-1.66-.46-.36-.12-.72-.21-1.08-.35a18.46,18.46,0,0,1-1.79-.76c-.3-.14-.61-.25-.91-.4a25.81,25.81,0,0,1-2.64-1.57c-11.68-8-23.57-15.68-35.37-23.49,20.62-2.62,40-4.69,59.08,0a186.5,186.5,0,0,1,20.93,6.81c6.85,2.59,11.32,7.55,13,16.13-1.68.26-3.26.53-4.8.78-.53.09-1.08.15-1.6.23-.9.13-1.81.28-2.71.38-9.13,1-18.3,1.68-27.41,2.9l-.32,0-1.16.13-1.81.18-1.21.07c-.57,0-1.14,0-1.71,0Zm2.82,23.11c27.32-4.56,53.3-6.25,79.9-.27v24.15C612,311.83,585.63,304.52,561.62,284.37Zm108.26,62.31c-.93,8.14-1.62,16.31-2.52,25.54-.92,0-3.3.63-5.12-.1-22.14-8.83-40.78-22.77-59.66-40.72A196.6,196.6,0,0,1,663,336.85C668.8,338.25,670.51,341.23,669.88,346.68ZM681.11,303c-1.12,4.4-3.28,8.53-4.93,12.67l-3.13-.49-.56-.1c-.9-.15-1.68-.3-2.37-.46l-.39-.09A12,12,0,0,1,668,314l-.2-.09a5.07,5.07,0,0,1-1.2-.71l-.05,0a3.4,3.4,0,0,1-.76-1,1.74,1.74,0,0,1-.11-.18,5.87,5.87,0,0,1-.41-1.34l-.06-.3a17,17,0,0,1-.19-1.82c0-.1,0-.23,0-.33,0-.71-.06-1.48-.09-2.36v-.09l-.06-2.21c0-.65,0-1.33-.06-2.06-.18-4.49-.19-9,0-13.47,0-.56,0-1.12.07-1.69.08-1.28.19-2.56.31-3.84.05-.56.06-1.13.13-1.7,0-.18.05-.36.07-.54l0-.36c.21-1.74.47-3.47.71-5.2.18-1.27.32-2.53.51-3.79.3-2,.64-4,1-6,.18-1.12.35-2.25.54-3.37.51-3,1-6,1.55-9,.56-3.18,1.1-6.37,1.62-9.55l3-.39c1.36,2.33,2.93,4.57,4.06,7,4.05,8.81,9.28,17.36,11.55,26.63C692.28,286,683.47,293.77,681.11,303Zm25.53,92.41C691.45,386,691,371.6,691.7,357.27c1.15-23.42,9.7-44.89,19.23-67.9,1.73,3.31,3.16,5.28,3.84,7.49,6.13,19.88,11.52,40,10.89,61C725.33,369.11,723,380,715,388.57,712.6,391.16,709.49,393.11,706.64,395.41Z"/><path class="cls-1" d="M1141.21,460.09A137.23,137.23,0,0,0,1109.87,414a140,140,0,0,0-47-31.34A147.09,147.09,0,0,0,1007.53,372H947.37V657.89h68.87a141,141,0,0,0,50.3-12,148,148,0,0,0,43.33-29.5,144.59,144.59,0,0,0,31.34-156.31Z"/><polygon class="cls-1" points="1484.3 447.42 1443.38 371.49 1371.13 371.49 1448.7 515.51 1448.7 657.41 1519.79 657.41 1519.79 516 1597.37 371.49 1525.12 371.49 1484.3 447.42"/><polygon class="cls-1" points="1243.74 371.49 1144.6 657.41 1220.62 657.41 1244.22 589.99 1317.54 589.99 1340.85 657.41 1417.36 657.41 1318.22 371.49 1243.74 371.49"/><path d="M990.7,646.15H921.83a3.58,3.58,0,0,1-3.58-3.58V356.65a3.58,3.58,0,0,1,3.58-3.58H982a150.63,150.63,0,0,1,56.67,10.9,143.5,143.5,0,0,1,48.21,32.13A140.8,140.8,0,0,1,1119,443.4h0a146.49,146.49,0,0,1-32.11,160.21,151.71,151.71,0,0,1-44.41,30.24,145,145,0,0,1-51.58,12.3ZM925.41,639h65.2a137.61,137.61,0,0,0,48.94-11.69,144.3,144.3,0,0,0,42.28-28.78,141,141,0,0,0,30.53-152.39h0a133.77,133.77,0,0,0-30.53-44.93A136.25,136.25,0,0,0,1036,370.61a143.66,143.66,0,0,0-54-10.38H925.41Z"/><path d="M1494.26,645.67h-71.09a3.58,3.58,0,0,1-3.59-3.58v-141l-77.14-143.23a3.59,3.59,0,0,1,3.15-5.28h72.26a3.6,3.6,0,0,1,3.15,1.89l37.76,70.07,37.66-70.07a3.6,3.6,0,0,1,3.16-1.89h72.25a3.59,3.59,0,0,1,3.16,5.28l-77.15,143.71V642.09A3.58,3.58,0,0,1,1494.26,645.67Zm-67.51-7.16h63.93V500.67a3.56,3.56,0,0,1,.42-1.69l74.75-139.23h-64.13l-39.81,74a3.57,3.57,0,0,1-3.15,1.89h0a3.57,3.57,0,0,1-3.15-1.89l-39.9-74h-64.12l74.73,138.74a3.64,3.64,0,0,1,.43,1.7Z"/><path d="M1391.83,645.67h-76.52a3.59,3.59,0,0,1-3.38-2.41l-22.48-65h-68.23l-22.76,65a3.57,3.57,0,0,1-3.38,2.4h-76a3.58,3.58,0,0,1-3.38-4.75L1214.82,355a3.59,3.59,0,0,1,3.38-2.41h74.48a3.58,3.58,0,0,1,3.38,2.41l99.15,285.93a3.59,3.59,0,0,1-3.38,4.75Zm-74-7.16h68.93l-96.66-278.76h-69.38l-96.66,278.76h68.45l22.76-65a3.59,3.59,0,0,1,3.38-2.4H1292a3.59,3.59,0,0,1,3.39,2.41Z"/><rect class="cls-4" x="404.59" y="716.86" width="788.19" height="156.52"/><path class="cls-1" d="M451.9,823.52v-4.2c0-1.4.22-2.8.22-4.19s-.32-2.9-.32-4.3.32-2.79.32-4.19c0-1.94-.22-1.94-.22-4,0-1.4.22-2.9.22-4.31s-.32-2.9-.32-4.4.1-2.79.1-4.3.12-2.9.12-4.3-.12-2.91-.12-4.3-.1-2.9-.1-4.41.43-2.9.43-4.3-.11-2.91-.11-4.3-.1-2.9-.1-4.4a46,46,0,0,1,.43-5.49,12.14,12.14,0,0,1,1.07-3.55,7.6,7.6,0,0,1,2.47-2.69,12,12,0,0,1,3.55-1.4c1.18-.21,2.47-.1,3.87-.21a21.94,21.94,0,0,1,3.76-.21H472c1.61,0,3.22-.33,4.84-.33h4c2.05,0,2.05.22,4.2.22,1.5,0,3.12.11,4.73.11s3.11-.33,4.73-.33a29.69,29.69,0,0,1,3.33.54,18.34,18.34,0,0,1,3.44.21,9.74,9.74,0,0,1,2.69,1.19,7.87,7.87,0,0,1,2.9,2.15,5.24,5.24,0,0,1,1,3.54,5.49,5.49,0,0,1-1.4,3.56,6.45,6.45,0,0,1-3,2.15,14,14,0,0,1-5.26,1.07h-2.91c-1.61,0-3.12-.11-4.73-.11s-3.12-.21-4.62-.21a31.33,31.33,0,0,0-4.52.32c-1.61.1-3.11.32-4.51.54a11.05,11.05,0,0,0-5.16,2,7.4,7.4,0,0,0-2.58,3.77,12.35,12.35,0,0,0-1.18,3.75,15.33,15.33,0,0,0,.21,3.88,15.78,15.78,0,0,0,.76,3.87,8.37,8.37,0,0,0,2.68,3.44,11.39,11.39,0,0,0,4,1.61c1.29.32,2.58.75,4,1a24.08,24.08,0,0,0,4,.33c1.29,0,1.29-.11,2.47-.11h3.88c1.28,0,2.58-.1,3.87,0s2.36.43,3.65.54a8.4,8.4,0,0,1,4,1.08,7,7,0,0,1,2.47,2.57,6.5,6.5,0,0,1,.54,3.55,5.84,5.84,0,0,1-1.19,3.55,7.44,7.44,0,0,1-3.22,2c-1.4.33-2.79.33-4.08.54s-2.8.21-4.2.21h-3.54c-1.83,0-1.83.11-3.66.22s-1.82.11-3.54.21a22.18,22.18,0,0,0-4.74.12,10.78,10.78,0,0,0-3.76,1.6,10.16,10.16,0,0,0-2.69,2.91,12.14,12.14,0,0,0-1.72,3.54,17,17,0,0,0-.43,4.74c0,1.39.11,1.39.11,2.79,0,1.83-.33,3.76-.33,5.59a16.81,16.81,0,0,1,0,3.33c-.1,1-.32,2-.53,3.34a6.55,6.55,0,0,1-1,2.47,7,7,0,0,1-2.58,3,6.56,6.56,0,0,1-3.87,1.19,6.4,6.4,0,0,1-3.87-1.29A7.83,7.83,0,0,1,453,833a11.94,11.94,0,0,1-1-5.26C452,826.31,451.9,824.91,451.9,823.52Z"/><path class="cls-1" d="M546.54,837.49a9.35,9.35,0,0,1-3.34-3.44,10.71,10.71,0,0,1-1.6-4.41,25.39,25.39,0,0,1,.21-2.8c0-1.39-.43-2.79-.43-4.29s.1-2.91.1-4.31.33-2.9.33-4.41-.11-2.9-.11-4.29.11-2.9.11-4.31-.43-2.9-.43-4.4.32-2.9.32-4.3v-4.3c0-1.51-.1-2.91-.1-4.41s.1-2.9.1-4.3-.22-2.9-.22-4.3v-4.41c0-1.39.12-2.9.12-4.29s-.12-2.91-.12-4.31.22-2.9.22-4.41a25,25,0,0,1,.33-4.19,9.31,9.31,0,0,1,2.25-4.62,8.88,8.88,0,0,1,4.63-2.15,31.24,31.24,0,0,1,3.54-.65,21.33,21.33,0,0,1,3.66-.1h.1c1.4,0,2.8-.21,4.09-.21s2.79-.12,4.19-.12,2.8.12,4.19.12,2.69.21,4.09.21,2.79-.11,4.19-.11,2.69-.1,4.09-.1,2.79.21,4.2.21a31.83,31.83,0,0,1,3.22.21,16,16,0,0,1,3.22.33,12.09,12.09,0,0,1,3,1.39,7.38,7.38,0,0,1,2.69,2.26,6,6,0,0,1,.86,3.44,7.92,7.92,0,0,1-3.87,5.16,12.45,12.45,0,0,1-5.69,1c-1.3,0-1.3.42-2.48.42s-2.37-.32-3.55-.32-2.26.11-3.44.11h-3.54a32.5,32.5,0,0,0-4.52.21c-1.51.12-2.91.44-4.52.65a14.56,14.56,0,0,0-4.62,1.4A8.71,8.71,0,0,0,558.8,770a11.18,11.18,0,0,0-1,4.73c0,.32.21.75.21,1.07,0,.54-.11,1.08-.11,1.62a12.13,12.13,0,0,0,1,3.44,10.69,10.69,0,0,0,1.83,3,9.44,9.44,0,0,0,3.23,1.83,19.4,19.4,0,0,0,4.51,1,34.7,34.7,0,0,0,4.73.11c1.29,0,2.48.1,3.76.1h3.76c1.19,0,2.48.22,3.66.22.22,0,.22-.32.43-.32,1,0,1.94.32,3,.43a13.89,13.89,0,0,1,3.55,1.07,7.6,7.6,0,0,1,2.9,2.15,6.7,6.7,0,0,1,1.3,3.44,5.73,5.73,0,0,1-1.3,3.23,7.38,7.38,0,0,1-2.69,2,13.79,13.79,0,0,1-3.22,1,18.41,18.41,0,0,1-3.44.44c-.64,0-.64.1-1.29.1-1.51,0-2.91-.32-4.41-.32s-3,.32-4.51.32a25.5,25.5,0,0,0-4,.11c-1.29.11-2.58.11-4,.32a13.39,13.39,0,0,0-4,1.29,9.06,9.06,0,0,0-3.22,2.69,11,11,0,0,0-1.94,3.87c-.21,1.19-.1,2.69-.21,4.31a13.25,13.25,0,0,0,1,4.51,9,9,0,0,0,2.26,3.76,11.41,11.41,0,0,0,3.77,2.37,17.57,17.57,0,0,0,6.13,1c.32,0,.75-.21,1.07-.21,1.93,0,3.76.32,5.69.32,1.51,0,3.12-.32,4.63-.32h4.73c1.18,0,2.36.11,3.65.21s2.37.44,3.66.65a13.81,13.81,0,0,1,2.79,1,6.37,6.37,0,0,1,3.87,4.61,6.84,6.84,0,0,1-2.36,5.6,7.86,7.86,0,0,1-4.3,1.93l-3.12.32h-1.18c-.21,0-.43.12-.65.12h-.21c-2.15,0-2.15-.12-4.3-.12s-2.15.12-4.41.12-2.15-.22-4.3-.22-2.15.1-4.3.1h-4.3c-1.5,0-3,.12-4.51.12-1.3,0-2.59-.22-3.87-.22s-2.59.1-4,.1c-.11,0-.11-.1-.22-.1-1.18,0-2.25,0-3.44-.11A12.32,12.32,0,0,1,546.54,837.49Z"/><path class="cls-1" d="M689.34,823.19a20.85,20.85,0,0,1-2.05,3.33,16.85,16.85,0,0,1-2.14,3.34,23.94,23.94,0,0,1-3,2.58A38.83,38.83,0,0,1,679,835c-1.08.64-2.47,1-3.65,1.61a25.33,25.33,0,0,1-3.87,1.83,27.48,27.48,0,0,1-4.2,1.07c-1.4.22-2.79.32-4.19.43-.65,0-1.18-.33-1.72-.33-.32,0-.32.22-.75.22-1.08,0-2.15-.1-3.12-.1-1.29,0-2.58.32-3.87.21s-2.47-.43-3.76-.64-2.59-.22-3.76-.54a19.57,19.57,0,0,1-3-1.29c-1-.43-1.93-1-2.9-1.51a14.39,14.39,0,0,1-2.15-1.39,8.09,8.09,0,0,1-2.15-2.8,5.82,5.82,0,0,1-.53-3.65,8.43,8.43,0,0,1,2.15-3.44,8,8,0,0,1,3.65-1.62,13.82,13.82,0,0,1,3.65-.1,21.49,21.49,0,0,1,3.66.32l1.72.64a23.47,23.47,0,0,0,3.77,1,28.39,28.39,0,0,0,4,.86,79.54,79.54,0,0,0,8.07-.86,14.85,14.85,0,0,0,3.86-2.48,17.44,17.44,0,0,0,3.12-3.22,10.13,10.13,0,0,0,1.62-4,12,12,0,0,0-.55-4.31,8.41,8.41,0,0,0-1.93-3.76,18.7,18.7,0,0,0-3.76-3.33,23,23,0,0,0-4.52-2.26c-1-.32-2-.64-3-1.07s-1.94-.86-2.91-1.19c-1.18-.43-2.47-.75-3.65-1.18s-2.26-1.07-3.44-1.61a43,43,0,0,1-4.52-1.83,36,36,0,0,1-4.08-2.58,20.74,20.74,0,0,1-3.66-3.22,26.66,26.66,0,0,1-4.73-7.75,19.32,19.32,0,0,1-.75-4.51c0-1.4,0-2.68.1-4a23.44,23.44,0,0,1,.65-4,21.23,21.23,0,0,1,.86-4,37.23,37.23,0,0,1,2-3.55,22.43,22.43,0,0,1,2.26-3.33,16.66,16.66,0,0,1,2.79-2.69,22.4,22.4,0,0,1,3.12-2,32.24,32.24,0,0,1,3.33-1.83,41.51,41.51,0,0,1,4.09-1.61c1.4-.43,2.79-1.19,4.19-1.5s2.91-.33,4.41-.55a29.7,29.7,0,0,1,4.41-.54c1.4,0,2.9.33,4.41.44a27.46,27.46,0,0,1,4.29.65c1.51.21,3,.31,4.41.63a20.17,20.17,0,0,1,2.8,1.62,14.11,14.11,0,0,1,2.57,1.82,4.93,4.93,0,0,1,1.62,3.56,5.31,5.31,0,0,1-1.18,3.65,7.89,7.89,0,0,1-2.47,2.48,7,7,0,0,1-3.34.63c-2,0-3.86.33-5.48.22s-2.91-.54-4.3-.75c-.54-.1-.43-.32-1-.43-1.3-.11-2.59.11-3.88.11a23,23,0,0,0-3.76.75,16,16,0,0,0-3.55,1.4,11.31,11.31,0,0,0-3.22,2.26,13.31,13.31,0,0,0-2.15,3.32,11.54,11.54,0,0,0-.65,3.88,9.37,9.37,0,0,0,3.45,7.53,17.24,17.24,0,0,0,3.76,2.57,28,28,0,0,0,3,1.94c1.19.43,2.37,1,3.44,1.29,1.84.64,3.66,1.08,5.49,1.72,1.61.54,3.11,1.39,4.73,1.93a24.41,24.41,0,0,1,4.3,1.72,28.62,28.62,0,0,1,4.08,2.47,16,16,0,0,1,3.44,3.12,19.88,19.88,0,0,1,2.91,3.77,18.85,18.85,0,0,1,1.39,4.4,31.58,31.58,0,0,1,.76,4.62c0,1.41-.11,2.91-.22,4.53a16.49,16.49,0,0,1-.43,4.51A25.75,25.75,0,0,1,689.34,823.19Z"/><path class="cls-1" d="M738.39,767.61a8.2,8.2,0,0,0-2.36-2.69,11.33,11.33,0,0,0-3.23-1.61,28.38,28.38,0,0,0-4.41-.64c-1-.12-2.15-.12-3.22-.33a30.83,30.83,0,0,1-3.12-.64,7.52,7.52,0,0,1-4-1.5,6.05,6.05,0,0,1-1.83-4,5.6,5.6,0,0,1,1.83-4.09,7.31,7.31,0,0,1,4.09-1.94c1.39-.21,2.68-.53,4.08-.75s2.8-.1,4.19-.1a.11.11,0,0,0,.12.1c1.28,0,2.57.11,4,.11s2.69-.11,4-.11,2.68-.1,4-.1h4c1.4,0,2.69.1,4,.1s2.69-.21,4.08-.21h4c1.3,0,2.69.11,4,.11s2.69-.11,4-.11,2.47.11,3.66.21l3.54.32c.75.12.65.54,1.4.65a6.8,6.8,0,0,1,4,1.82,5.37,5.37,0,0,1,2.05,3.88,5.45,5.45,0,0,1-1.83,4,8.25,8.25,0,0,1-4.09,1.72c-1.5.22-3,.33-4.4.54a12.66,12.66,0,0,0-1.93.21,3.32,3.32,0,0,0-1,.22,9.53,9.53,0,0,0-1.94.22,15.09,15.09,0,0,0-4.4,1.61,11.62,11.62,0,0,0-3,3.44,13,13,0,0,0-1.61,4.3c-.21,1.4-.11,2.8-.21,4-.11,1.51-.22,2.8-.22,4.08s-.32,2.8-.32,4.31V789c0,1.4.1,2.8.1,4.31s.33,2.79.33,4.29-.21,2.8-.21,4.31-.12,2.79-.12,4.29.12,2.8.12,4.31-.22,2.79-.22,4.29c0,2.16.22,2.16.22,4.19s-.12,2.16-.12,4.31c0,1.5.22,2.9.12,4.29a13.41,13.41,0,0,1-.44,3.23,7.69,7.69,0,0,1-2.47,4.3,6.55,6.55,0,0,1-4.51,1.72c-.11,0-.22-.1-.33-.1a7.53,7.53,0,0,1-4.83-1.62,8.74,8.74,0,0,1-2.15-4.72l-.65-4.09c-.1-1.4-.22-2.79-.22-4.19V818c.12-1.39,0-2.69,0-4.08v-8.18c0-2,.22-2,.22-4.19v-4.19c0-2.15-.22-2.15-.22-4.3,0-1.29.12-2.69.12-4.09s-.22-2.69-.22-4.08.1-2.8.1-4.08v-4.2a19.42,19.42,0,0,0-.64-5.91A11.42,11.42,0,0,0,738.39,767.61Z"/><path class="cls-5" d="M894.55,813.87a5,5,0,0,0,3.17,7.94,14.9,14.9,0,0,0,5,.89c1.15,0,2.28,0,3.52.07s2.28.19,3.42.18,2.28.19,3.42.18,2.27-.12,3.41,0a7.82,7.82,0,0,1,3.22,1,5.71,5.71,0,0,1,2.6,2,3.68,3.68,0,0,1,.14,5.07,8.54,8.54,0,0,1-2.35,2.4,8.14,8.14,0,0,1-3.21.65c-1.76,0-3.51-.08-5.69-.06-1.66,0-1.65.12-3.31.13-1.86.12-3.82.34-5.89.46-1.14,0-2.49-.29-3.73-.17s-2.48.12-3.83.13-2.48.44-3.71.45-2.6-.08-3.83-.07-2.69.23-4.14.24l-3.32-.28c-1.13-.1-2.28-.19-3.41-.39a11.81,11.81,0,0,1-3.85-1.73,7.72,7.72,0,0,1-2.72-3.08,13,13,0,0,1-.86-4.13,25.6,25.6,0,0,1,1.8-7.78,13.39,13.39,0,0,1,2-3.43c1.34-1.56,2.77-3,4.11-4.38,1-.83,2.05-1.46,3.08-2.3s1.74-1.87,2.66-2.71,2.37-1.78,3.4-2.72,2.05-2.19,3.18-3.13,2.26-1.88,3.29-2.82c1.43-1.36,2.87-2.82,4.31-4.07,1.13-1.05,2.15-2.2,3.29-3.13s2.36-1.89,3.39-2.93,1.73-2.5,2.65-3.75c.72-1,1.23-2,1.74-2.8a28.68,28.68,0,0,0,1.42-3.12,11.74,11.74,0,0,0,.49-3.32,12.06,12.06,0,0,0-.76-4.44,9.76,9.76,0,0,0-2.72-3.5,15.91,15.91,0,0,0-3.54-2.76,11.14,11.14,0,0,0-4.36-1.1,12.4,12.4,0,0,0-4.33.76,17,17,0,0,0-4.13,1.69c-.72.52-1.44,1.15-2.16,1.78l-1.65,1.35c-.92.63-1.74,1.26-2.77,1.89a9.72,9.72,0,0,1-3.1,1.06,6.6,6.6,0,0,1-3.1.34,5.56,5.56,0,0,1-2.91-1.43,6.16,6.16,0,0,1-1.37-3,6.38,6.38,0,0,1,0-3.11A8.5,8.5,0,0,1,874,759.2a11.89,11.89,0,0,1,2.66-3,21.76,21.76,0,0,1,2.88-2.51c1-.73,2.16-1.26,3.19-1.89s2.37-.95,3.51-1.37a23.79,23.79,0,0,1,3.72-.86c1.13-.21,2.37-.43,3.71-.55s2.49-.33,3.94-.34c1.23,0,2.58,0,4,.06a21.26,21.26,0,0,1,4.15.69,27.26,27.26,0,0,1,3.94,1.21,18.81,18.81,0,0,1,4,1.63,24.93,24.93,0,0,1,3.22,2.56,22.43,22.43,0,0,1,2.82,2.56,20.43,20.43,0,0,1,2,3.19,12.52,12.52,0,0,1,1.48,3.4,15.62,15.62,0,0,1,.65,3.73c.22,1.34.54,2.47.65,3.71s-.29,2.49-.38,3.73a20.28,20.28,0,0,1-.39,3.63,32.45,32.45,0,0,1-1,3.62,23.85,23.85,0,0,1-1.93,4.16,31.83,31.83,0,0,1-2.66,3.85,42.09,42.09,0,0,1-2.76,3.23c-.93,1-2.16,1.78-3.19,2.82s-1.84,2.09-2.87,3c-.82.73-.93.63-1.75,1.36-1,.94-2.16,1.88-3.29,2.82s-2.25,2.29-3.38,3.34-2.37,2.19-3.49,3.34A16.79,16.79,0,0,0,894.55,813.87Z"/><path class="cls-5" d="M1001,780.3c.22,1.24.33,2.37.44,3.61a19.84,19.84,0,0,1,.24,3.52,21.67,21.67,0,0,1-.07,3.62c0,1.45.33,2.89.24,4.35a27.73,27.73,0,0,1-.38,4.24c-.09,1.45-.18,2.9-.38,4.35s-.39,2.9-.68,4.35c-.3,1.25-.81,2.39-1.22,3.63a38,38,0,0,1-.79,3.74c-.51,1.24-1.22,2.28-1.73,3.42s-1.33,2.29-1.94,3.33a23.29,23.29,0,0,1-2.25,3.12,35.61,35.61,0,0,1-2.56,3c-1,.83-2.16,1.57-3.19,2.3a26.8,26.8,0,0,1-3.4,1.89,23,23,0,0,1-3.71,1.58,15.86,15.86,0,0,1-3.93.55,33.79,33.79,0,0,1-4.75.36c-1,0-2,0-3-.08-1.45-.2-2.89-.19-4.24-.49a19.17,19.17,0,0,1-4.15-1.41,23.11,23.11,0,0,1-3.75-2.14,38.58,38.58,0,0,1-3.33-2.56,39.9,39.9,0,0,1-3-3.08,21.22,21.22,0,0,1-2.42-3.49,25.32,25.32,0,0,1-1.89-3.61c-.52-1.14-1.26-2.37-1.69-3.61L942.22,811c-.33-1.55-.55-3-.77-4.34a31.31,31.31,0,0,1-.76-4.23,30.1,30.1,0,0,1-.34-4.24,30,30,0,0,0,0-3c0-.62-.21-.62-.32-1.24a4.86,4.86,0,0,1,.1-.52,5.46,5.46,0,0,1-.22-1.44c.09-1.25.08-2.49.18-3.73l.28-3.73c.09-1.25,0-2.48.17-3.73s.6-2.49.8-3.73.18-2.49.48-3.73.61-2.38,1-3.63.7-2.38,1.21-3.53a28.93,28.93,0,0,1,2-3.53,15.39,15.39,0,0,1,4.5-6.77,17.87,17.87,0,0,1,3-2.71A30.26,30.26,0,0,1,957,751c1.23-.53,2.47-1.16,3.81-1.59s2.68-.44,3.92-.76a27,27,0,0,1,4-.65,25.83,25.83,0,0,1,4,.07,23.92,23.92,0,0,1,3.94.38c1.35.3,2.59.81,3.83,1.21a24.75,24.75,0,0,1,3.84,1.52c1.25.72,2.6,1.43,3.75,2.25a18.62,18.62,0,0,1,3.13,3.28,19.13,19.13,0,0,1,2.82,3.49,33.1,33.1,0,0,1,2.21,3.81c.53,1.14.95,2.38,1.38,3.62a30.43,30.43,0,0,1,1.48,3.61,22.17,22.17,0,0,1,1,3.71c.32,1.24.53,2.48.75,3.83A8.68,8.68,0,0,1,1001,780.3Zm-13.68,10.35c0-.72.2-1.45.19-2.17a26,26,0,0,0,0-4.14c-.12-1.45-.54-2.89-.76-4.24L986.1,776c-.32-1.13-.63-2.27-1.06-3.4a19.68,19.68,0,0,0-1.79-3.2,18.5,18.5,0,0,0-2.09-2.88,13.53,13.53,0,0,0-2.61-2.77,12,12,0,0,0-3.43-1.73,15.79,15.79,0,0,0-3.73-.69c-.31,0-.52-.31-.73-.31a11.42,11.42,0,0,0-3.3.76,16.48,16.48,0,0,0-3.2,1.16,17,17,0,0,0-2.57,2.2,35.12,35.12,0,0,0-2.56,3.12,24.54,24.54,0,0,0-2,3.64,189.11,189.11,0,0,0-2.31,8.71c-.19,1.66-.07,3.31-.26,5,0,.1,0,.1-.1.21-.1,1.34-.09,2.79-.18,4.14s-.28,2.79-.27,4.14.54,2.79.65,4.13.23,2.79.45,4.24.54,2.69.86,4,.65,2.68,1.07,4a15.19,15.19,0,0,0,1.58,3.71,14.78,14.78,0,0,0,2.31,3.29,15.93,15.93,0,0,0,3,2.46,13.13,13.13,0,0,0,3.53,1.83,10.73,10.73,0,0,0,4,.38,10.77,10.77,0,0,0,7.43-2.75,10.6,10.6,0,0,0,2.77-2.92,27.24,27.24,0,0,0,2.25-2.92c.61-1.14,1-2.28,1.52-3.43a20.3,20.3,0,0,0,.91-3.63,22.34,22.34,0,0,0,.79-3.62c.2-1.25.08-2.49.18-3.73s.18-2.49.17-3.72,0-2.49-.13-3.73A3.33,3.33,0,0,1,987.36,790.65Z"/><path class="cls-5" d="M1041.72,812.65a5,5,0,0,0,3.18,7.94,14.9,14.9,0,0,0,5,.89c1.14,0,2.28,0,3.52.07s2.28.19,3.41.18,2.28.19,3.42.18,2.28-.12,3.42,0a7.58,7.58,0,0,1,3.21,1,5.79,5.79,0,0,1,2.61,2.05,3.68,3.68,0,0,1,.14,5.07,8.71,8.71,0,0,1-2.36,2.4,8.09,8.09,0,0,1-3.2.65c-1.76,0-3.52-.08-5.69-.06-1.66,0-1.66.12-3.31.13-1.86.12-3.83.34-5.89.46-1.15,0-2.49-.29-3.73-.17s-2.49.12-3.83.13-2.48.44-3.72.45-2.59-.08-3.83-.07-2.69.23-4.14.24l-3.31-.28c-1.14-.1-2.28-.19-3.42-.39a11.85,11.85,0,0,1-3.84-1.73,7.65,7.65,0,0,1-2.72-3.08,12.52,12.52,0,0,1-.86-4.13,25.6,25.6,0,0,1,1.8-7.78,13.11,13.11,0,0,1,2-3.43c1.33-1.56,2.76-3,4.1-4.38,1-.83,2.06-1.46,3.09-2.3s1.74-1.87,2.66-2.71,2.37-1.78,3.4-2.72,2.05-2.19,3.17-3.13,2.27-1.88,3.29-2.82c1.44-1.36,2.88-2.82,4.32-4.07,1.13-1.05,2.15-2.2,3.28-3.13s2.37-1.89,3.39-2.93,1.74-2.5,2.66-3.75c.71-1,1.22-2,1.73-2.8a27,27,0,0,0,1.43-3.12,11.73,11.73,0,0,0,.49-3.31,12.29,12.29,0,0,0-.77-4.45,9.73,9.73,0,0,0-2.71-3.5,16.14,16.14,0,0,0-3.54-2.76,11.36,11.36,0,0,0-4.36-1.1,12.45,12.45,0,0,0-4.34.76,17.07,17.07,0,0,0-4.12,1.69c-.72.52-1.44,1.15-2.16,1.78L1033,766c-.92.63-1.74,1.26-2.77,1.89a9.72,9.72,0,0,1-3.1,1.06,6.62,6.62,0,0,1-3.1.34,5.53,5.53,0,0,1-2.91-1.43,6.07,6.07,0,0,1-1.37-3,6.38,6.38,0,0,1,0-3.11,8.38,8.38,0,0,1,1.53-3.74,11.89,11.89,0,0,1,2.66-3,21.06,21.06,0,0,1,2.87-2.51c1-.73,2.17-1.26,3.2-1.89s2.37-.95,3.5-1.37a23.79,23.79,0,0,1,3.72-.86c1.14-.21,2.38-.43,3.72-.55s2.48-.33,3.93-.34c1.24,0,2.59,0,4,.06a21.14,21.14,0,0,1,4.15.69,26.51,26.51,0,0,1,3.94,1.21,18.81,18.81,0,0,1,3.95,1.63,25,25,0,0,1,3.23,2.56,21.66,21.66,0,0,1,2.81,2.56,20.5,20.5,0,0,1,2,3.19,12.84,12.84,0,0,1,1.48,3.4,15.62,15.62,0,0,1,.65,3.73c.22,1.34.53,2.47.65,3.71s-.29,2.49-.38,3.73a20.28,20.28,0,0,1-.39,3.63,37.42,37.42,0,0,1-1,3.62,23.91,23.91,0,0,1-1.94,4.16,32.65,32.65,0,0,1-2.65,3.86,41.61,41.61,0,0,1-2.77,3.22c-.92,1-2.16,1.78-3.18,2.82s-1.85,2.09-2.87,3c-.82.73-.93.63-1.75,1.36-1,.94-2.16,1.88-3.29,2.82s-2.26,2.29-3.38,3.34-2.37,2.19-3.49,3.34A16.82,16.82,0,0,0,1041.72,812.65Z"/><path class="cls-5" d="M1117.35,812a5,5,0,0,0,3.17,7.94,15.16,15.16,0,0,0,5,.89c1.14,0,2.28,0,3.52.07s2.28.19,3.42.18,2.27.19,3.42.18,2.27-.12,3.41,0a7.82,7.82,0,0,1,3.22,1,5.64,5.64,0,0,1,2.6,2,3.68,3.68,0,0,1,.14,5.07,8.64,8.64,0,0,1-2.35,2.39,8,8,0,0,1-3.21.65c-1.76,0-3.52-.07-5.69-.06-1.66,0-1.66.13-3.31.14-1.86.12-3.82.34-5.89.46-1.14,0-2.49-.29-3.73-.17s-2.48.12-3.83.13-2.48.44-3.72.45-2.59-.09-3.83-.08-2.69.23-4.14.25l-3.31-.28c-1.14-.1-2.28-.19-3.42-.39a11.85,11.85,0,0,1-3.84-1.73,7.71,7.71,0,0,1-2.72-3.08,13.11,13.11,0,0,1-.86-4.13,25.6,25.6,0,0,1,1.8-7.78,13.23,13.23,0,0,1,2-3.43c1.33-1.56,2.77-3,4.1-4.38,1-.83,2.06-1.47,3.09-2.3s1.74-1.88,2.66-2.71,2.37-1.78,3.4-2.72,2-2.19,3.18-3.13,2.26-1.89,3.28-2.82c1.44-1.36,2.88-2.82,4.32-4.08,1.13-1,2.15-2.19,3.28-3.13s2.37-1.88,3.39-2.93a45.8,45.8,0,0,0,2.66-3.74c.72-1,1.23-2,1.74-2.81a28.58,28.58,0,0,0,1.42-3.11,11.74,11.74,0,0,0,.49-3.32,12,12,0,0,0-.76-4.44,9.78,9.78,0,0,0-2.72-3.5,16.48,16.48,0,0,0-3.54-2.77,11.17,11.17,0,0,0-4.36-1.09,12.49,12.49,0,0,0-4.34.76,17.44,17.44,0,0,0-4.12,1.68c-.72.53-1.44,1.16-2.16,1.78l-1.65,1.36c-.92.63-1.74,1.26-2.77,1.89a10.23,10.23,0,0,1-3.1,1.06,6.6,6.6,0,0,1-3.1.33,5.44,5.44,0,0,1-2.91-1.42,6.06,6.06,0,0,1-1.37-3,6.34,6.34,0,0,1,0-3.1,8.45,8.45,0,0,1,1.53-3.74,11.89,11.89,0,0,1,2.66-3,22.33,22.33,0,0,1,2.87-2.51c1-.74,2.17-1.26,3.2-1.89s2.37-.95,3.51-1.37a23.83,23.83,0,0,1,3.72-.87,36.23,36.23,0,0,1,3.71-.54c1.24-.12,2.49-.33,3.94-.35,1.23,0,2.58,0,4,.07a20.54,20.54,0,0,1,4.15.69,25,25,0,0,1,3.94,1.21,18.21,18.21,0,0,1,3.94,1.63,23.56,23.56,0,0,1,3.23,2.56,21.69,21.69,0,0,1,2.82,2.56,20.72,20.72,0,0,1,2,3.19,12.84,12.84,0,0,1,1.48,3.4,15.62,15.62,0,0,1,.65,3.72c.22,1.34.54,2.48.65,3.72s-.29,2.49-.38,3.73a20.07,20.07,0,0,1-.39,3.62,35,35,0,0,1-1,3.63,25.35,25.35,0,0,1-1.93,4.16,31.83,31.83,0,0,1-2.66,3.85c-.92,1.14-1.84,2.29-2.77,3.23s-2.16,1.78-3.18,2.82-1.84,2.08-2.87,3c-.82.73-.93.62-1.75,1.35-1,.95-2.16,1.89-3.29,2.83s-2.25,2.29-3.38,3.33-2.37,2.2-3.49,3.35A16.79,16.79,0,0,0,1117.35,812Z"/></svg>